<svg id="Layer_1" data-name="Layer 1" xmlns="http://www.w3.org/2000/svg" viewBox="0 0 568.23 129.63"><title>Qonstanta-footer-07</title><path d="M113.12,63.55c-.07,1.45-.2,2.91-.4,4.38a13.25,13.25,0,0,1-.64,2.84L95.31,58.66A63.3,63.3,0,0,0,91.9,43c-.51-1.43-1.05-2.79-1.61-4.07C81.11,22,62.25,13.2,44.66,17.14,23.76,21.82,13.1,42.6,13.1,59.49c0,28.18,24.38,50.61,50.47,44.95.45-.09.89-.2,1.32-.3,1-.26,2-.55,3-.9a14.54,14.54,0,0,1,1.81-.46c.43-.08.94-.17,1.49-.24l13.59,9.82a8.17,8.17,0,0,1-4.66,3.35s0,0-.08,0c-.66.22-1.31.4-1.93.54l-.07,0c-.88.2-1.7.33-2.33.44a84.52,84.52,0,0,1-33.52-1.29C40.79,115,26,110.64,15.29,98.93-1.68,80.39-6.91,45.3,12,21.46,21.76,9.12,39-1.46,59.68.17c26.2,2.06,40,22.75,43.89,28.58C103.57,28.75,114.05,44.45,113.12,63.55Z" style="fill:#fff"/><path d="M40.19,49.52a16.26,16.26,0,0,0,3.26,23.07L63.63,45.71A17,17,0,0,0,40.19,49.52Z" style="fill:#fff"/><path d="M129.06,92.92,111.33,80.13,96.14,69.18,70.93,51,50.76,77.86,79.43,98.55l14.36,10.37,15.1,10.89,42.31,9.82Zm-18.28,22.55s.16-4.32,2-6.75,6-2.53,7-1.8c-1-.73-2.16-4.61-.32-7.06s6-3.88,6-3.88l12.73,21.08-3,4Z" style="fill:#fff"/><path d="M176.65,65.12c-5.88,0-9.81-3.94-9.81-9.82V42.43c0-5.88,3.93-9.81,9.81-9.81h22.12c5.88,0,9.82,3.93,9.82,9.81V76.61a1.58,1.58,0,0,1-1.82,1.82h-4.56c-1.19,0-1.75-.57-1.75-1.82v-15c-1.56,2.18-4.12,3.5-7.81,3.5Zm23.81-21a4,4,0,0,0-4.31-4.32H179.27A4,4,0,0,0,175,44.12v9.5a4,4,0,0,0,4.31,4.31h16.88a4,4,0,0,0,4.31-4.31Z" style="fill:#fff"/><path d="M215.58,55.3V42.43c0-5.88,3.94-9.81,9.81-9.81h22.07c5.87,0,9.87,3.93,9.87,9.81V55.3c0,5.88-4,9.82-9.87,9.82H225.39C219.52,65.12,215.58,61.18,215.58,55.3Zm8.13-11.18v9.5A4,4,0,0,0,228,57.93h16.81a4,4,0,0,0,4.31-4.31v-9.5a4,4,0,0,0-4.31-4.32H228A4,4,0,0,0,223.71,44.12Z" style="fill:#fff"/><path d="M274.14,32.62h21.12c5.88,0,9.82,3.93,9.82,9.81V63.3a1.58,1.58,0,0,1-1.82,1.82H298.7c-1.19,0-1.75-.57-1.75-1.82V44.12a4,4,0,0,0-4.31-4.32H276.76a4,4,0,0,0-4.31,4.32V63.3c0,1.25-.56,1.82-1.81,1.82h-4.56a1.6,1.6,0,0,1-1.82-1.82V42.43C264.26,36.55,268.26,32.62,274.14,32.62Z" style="fill:#fff"/><path d="M313.51,65.12a1.58,1.58,0,0,1-1.82-1.82V59.74c0-1.25.57-1.81,1.82-1.81h27.37c2.06,0,2.81-.94,2.81-2.81V54.8c0-1.81-.75-2.81-2.81-2.81H319.94c-5.81,0-8.87-3.06-8.87-8.87V41.49c0-5.75,3.06-8.87,8.87-8.87h28.88a1.59,1.59,0,0,1,1.81,1.81V38a1.59,1.59,0,0,1-1.81,1.81H322.07c-2.06,0-2.81.94-2.81,2.82v.31c0,1.81.75,2.81,2.81,2.81h20.87c5.82,0,8.94,3.06,8.94,8.88v1.62c0,5.75-3.12,8.88-8.94,8.88Z" style="fill:#fff"/><path d="M387.56,59.74V63.3c0,1.25-.56,1.82-1.81,1.82H370.81c-5.87,0-9.81-3.94-9.81-9.82V39.8h-3.37c-1.19,0-1.75-.56-1.75-1.81V34.43c0-1.25.56-1.81,1.75-1.81H361v-6c0-1.25.56-1.82,1.81-1.82h4.5a1.58,1.58,0,0,1,1.82,1.82v6h16.31c1.25,0,1.81.56,1.81,1.81V38c0,1.25-.56,1.81-1.81,1.81H369.13V53.62a4,4,0,0,0,4.31,4.31h12.31C387,57.93,387.56,58.49,387.56,59.74Z" style="fill:#fff"/><path d="M425.56,44.12a4,4,0,0,0-4.31-4.32H395.56c-1.19,0-1.75-.56-1.75-1.81V34.43c0-1.25.56-1.81,1.75-1.81h28.31c5.88,0,9.81,3.93,9.81,9.81v13.5c0,5.87-3.31,9.19-9.18,9.19H401.31c-5.81,0-8.88-3.13-8.88-8.88V54.62c0-5.82,3.07-8.88,8.88-8.88h24.25Zm-3.13,13.81a2.78,2.78,0,0,0,3.13-3.13V52H403.43c-2.06,0-2.81,1-2.81,2.81v.32c0,1.87.75,2.81,2.81,2.81Z" style="fill:#fff"/><path d="M450.55,32.62h21.13c5.87,0,9.81,3.93,9.81,9.81V63.3c0,1.25-.56,1.82-1.81,1.82h-4.56c-1.19,0-1.75-.57-1.75-1.82V44.12a4,4,0,0,0-4.32-4.32H453.18a4,4,0,0,0-4.31,4.32V63.3a1.58,1.58,0,0,1-1.82,1.82h-4.56a1.6,1.6,0,0,1-1.81-1.82V42.43C440.68,36.55,444.68,32.62,450.55,32.62Z" style="fill:#fff"/><path d="M518.42,59.74V63.3c0,1.25-.56,1.82-1.81,1.82H501.67c-5.87,0-9.81-3.94-9.81-9.82V39.8h-3.38c-1.18,0-1.75-.56-1.75-1.81V34.43c0-1.25.57-1.81,1.75-1.81h3.38v-6c0-1.25.56-1.82,1.81-1.82h4.5c1.25,0,1.81.57,1.81,1.82v6H516.3c1.25,0,1.81.56,1.81,1.81V38c0,1.25-.56,1.81-1.81,1.81H500V53.62a4,4,0,0,0,4.32,4.31h12.31C517.86,57.93,518.42,58.49,518.42,59.74Z" style="fill:#fff"/><path d="M556.42,44.12a4,4,0,0,0-4.31-4.32H526.42c-1.19,0-1.75-.56-1.75-1.81V34.43c0-1.25.56-1.81,1.75-1.81h28.31c5.88,0,9.81,3.93,9.81,9.81v13.5c0,5.87-3.31,9.19-9.18,9.19H532.17c-5.81,0-8.88-3.13-8.88-8.88V54.62c0-5.82,3.07-8.88,8.88-8.88h24.25Zm-3.13,13.81a2.78,2.78,0,0,0,3.13-3.13V52H534.29c-2.06,0-2.81,1-2.81,2.81v.32c0,1.87.75,2.81,2.81,2.81Z" style="fill:#fff"/><path d="M350.73,88.89a6.14,6.14,0,0,1,2.39,2.57,9.52,9.52,0,0,1,0,7.91,6.24,6.24,0,0,1-2.4,2.58,6.85,6.85,0,0,1-3.51.91,6.07,6.07,0,0,1-3.76-1.15,5.69,5.69,0,0,1-2.12-3v4h-1.86V83h1.86v9.13a5.72,5.72,0,0,1,2.12-3A6.13,6.13,0,0,1,347.21,88,6.9,6.9,0,0,1,350.73,88.89Zm-6.79,1.47a5,5,0,0,0-1.92,2,7,7,0,0,0,0,6.08,4.93,4.93,0,0,0,1.92,2,5.37,5.37,0,0,0,2.77.72,5.16,5.16,0,0,0,3.93-1.55,6.89,6.89,0,0,0,0-8.46,5.12,5.12,0,0,0-3.93-1.55A5.46,5.46,0,0,0,343.94,90.36Z" style="fill:#fff"/><path d="M367.57,88.89a6.34,6.34,0,0,1,2.56,2.57,8.12,8.12,0,0,1,.93,4,8,8,0,0,1-.93,3.95,6.46,6.46,0,0,1-2.56,2.57,8,8,0,0,1-7.41,0,6.49,6.49,0,0,1-2.59-2.58,8.79,8.79,0,0,1,0-7.91,6.41,6.41,0,0,1,2.59-2.57,8.16,8.16,0,0,1,7.41,0Zm-6.35,1.37a4.72,4.72,0,0,0-2,1.95,7.27,7.27,0,0,0,0,6.43,4.79,4.79,0,0,0,2,1.93,5.58,5.58,0,0,0,2.65.64,5.42,5.42,0,0,0,2.61-.64,4.76,4.76,0,0,0,1.95-1.93,7.27,7.27,0,0,0,0-6.43,4.7,4.7,0,0,0-1.95-1.95,5.42,5.42,0,0,0-2.61-.64A5.58,5.58,0,0,0,361.22,90.26Z" style="fill:#fff"/><path d="M384.65,88.89a6.34,6.34,0,0,1,2.56,2.57,8.12,8.12,0,0,1,.93,4,8,8,0,0,1-.93,3.95,6.46,6.46,0,0,1-2.56,2.57,8,8,0,0,1-7.41,0,6.49,6.49,0,0,1-2.59-2.58,8.79,8.79,0,0,1,0-7.91,6.41,6.41,0,0,1,2.59-2.57,8.16,8.16,0,0,1,7.41,0Zm-6.35,1.37a4.72,4.72,0,0,0-2,1.95,7.27,7.27,0,0,0,0,6.43,4.79,4.79,0,0,0,2,1.93,5.58,5.58,0,0,0,2.65.64,5.42,5.42,0,0,0,2.61-.64,4.76,4.76,0,0,0,1.95-1.93,7.27,7.27,0,0,0,0-6.43,4.7,4.7,0,0,0-1.95-1.95,5.42,5.42,0,0,0-2.61-.64A5.58,5.58,0,0,0,378.3,90.26Z" style="fill:#fff"/><path d="M399.65,89.25a5.3,5.3,0,0,1,1.75,3.37h-1.78a3.57,3.57,0,0,0-1.15-2.32,3.78,3.78,0,0,0-2.67-.92,3.36,3.36,0,0,0-2.24.7,2.37,2.37,0,0,0-.81,1.87,1.94,1.94,0,0,0,.52,1.41,3.46,3.46,0,0,0,1.29.81,19.85,19.85,0,0,0,2.07.57,20.35,20.35,0,0,1,2.56.75,4.16,4.16,0,0,1,1.65,1.21,3.36,3.36,0,0,1,.69,2.23,3.52,3.52,0,0,1-1.28,2.82,5.05,5.05,0,0,1-3.41,1.11,6.53,6.53,0,0,1-4.09-1.24,5,5,0,0,1-1.88-3.38h1.8a3.45,3.45,0,0,0,1.25,2.33,4.45,4.45,0,0,0,2.95.91,3,3,0,0,0,2.14-.72,2.41,2.41,0,0,0,.77-1.86,2,2,0,0,0-.53-1.48,3.36,3.36,0,0,0-1.31-.84A21.62,21.62,0,0,0,395.8,96a19.05,19.05,0,0,1-2.5-.75,4,4,0,0,1-1.61-1.15A3.2,3.2,0,0,1,391,92a3.55,3.55,0,0,1,1.3-2.86A5.3,5.3,0,0,1,395.86,88,5.57,5.57,0,0,1,399.65,89.25Z" style="fill:#fff"/><path d="M411.51,101v1.65h-1.73a4.39,4.39,0,0,1-3.13-1,4.55,4.55,0,0,1-1-3.36V89.81h-2.2V88.19h2.2V84.53h1.88v3.66h4v1.62h-4v8.54a3,3,0,0,0,.56,2.1,2.64,2.64,0,0,0,2,.57Z" style="fill:#fff"/><path d="M421.85,88.19l5,12.07,4.64-12.07h2.07l-8.51,21.32H423l2.92-7-6.1-14.32Z" style="fill:#fff"/><path d="M446.21,88.89a6.34,6.34,0,0,1,2.56,2.57,8.12,8.12,0,0,1,.93,4,8,8,0,0,1-.93,3.95,6.46,6.46,0,0,1-2.56,2.57,8,8,0,0,1-7.41,0,6.49,6.49,0,0,1-2.59-2.58,8.79,8.79,0,0,1,0-7.91,6.41,6.41,0,0,1,2.59-2.57,8.16,8.16,0,0,1,7.41,0Zm-6.35,1.37a4.72,4.72,0,0,0-2,1.95,7.27,7.27,0,0,0,0,6.43,4.79,4.79,0,0,0,2,1.93,5.58,5.58,0,0,0,2.65.64,5.42,5.42,0,0,0,2.61-.64,4.76,4.76,0,0,0,1.95-1.93,7.27,7.27,0,0,0,0-6.43,4.7,4.7,0,0,0-1.95-1.95,5.42,5.42,0,0,0-2.61-.64A5.58,5.58,0,0,0,439.86,90.26Z" style="fill:#fff"/><path d="M465.53,88.19v14.48h-1.85V99.09a5,5,0,0,1-2,2.86,5.79,5.79,0,0,1-3.34,1,5.51,5.51,0,0,1-4.12-1.61,6.42,6.42,0,0,1-1.58-4.71V88.19h1.85v8.27a5.1,5.1,0,0,0,1.2,3.65,4.26,4.26,0,0,0,3.26,1.26,4.48,4.48,0,0,0,3.46-1.39,5.84,5.84,0,0,0,1.29-4.1V88.19Z" style="fill:#fff"/><path d="M473.52,88.77a6.52,6.52,0,0,1,3.42-.85v2h-.61a5.28,5.28,0,0,0-3.48,1.13,4.46,4.46,0,0,0-1.37,3.67v7.93h-1.89V88.19h1.89v3A4.86,4.86,0,0,1,473.52,88.77Z" style="fill:#fff"/><path d="M488.19,83v19.63H486.3V83Z" style="fill:#fff"/><path d="M501.82,100.34a4,4,0,0,0,1.59-2.66h2a5.87,5.87,0,0,1-2.2,3.74,7.07,7.07,0,0,1-4.56,1.44,7.51,7.51,0,0,1-3.68-.89,6.22,6.22,0,0,1-2.5-2.58,9.18,9.18,0,0,1,0-7.93,6.2,6.2,0,0,1,2.5-2.57,7.51,7.51,0,0,1,3.68-.89,7.28,7.28,0,0,1,3.67.89,6,6,0,0,1,2.36,2.37,6.66,6.66,0,0,1,.81,3.24,7.84,7.84,0,0,1-.11,1.35h-12a6.14,6.14,0,0,0,.75,3.07,4.58,4.58,0,0,0,1.9,1.81,5.56,5.56,0,0,0,2.52.59A5.42,5.42,0,0,0,501.82,100.34ZM496,90.1a4.54,4.54,0,0,0-1.9,1.79,6,6,0,0,0-.78,3h10.23a5.34,5.34,0,0,0-.58-3,4.36,4.36,0,0,0-1.86-1.8,5.55,5.55,0,0,0-2.54-.59A5.62,5.62,0,0,0,496,90.1Z" style="fill:#fff"/><path d="M517,89.25a5.3,5.3,0,0,1,1.75,3.37h-1.77a3.58,3.58,0,0,0-1.16-2.32,3.77,3.77,0,0,0-2.66-.92,3.37,3.37,0,0,0-2.25.7,2.39,2.39,0,0,0-.8,1.87,1.94,1.94,0,0,0,.51,1.41,3.55,3.55,0,0,0,1.29.81,19.85,19.85,0,0,0,2.07.57,20.35,20.35,0,0,1,2.56.75,4.2,4.2,0,0,1,1.66,1.21,3.36,3.36,0,0,1,.69,2.23,3.53,3.53,0,0,1-1.29,2.82,5,5,0,0,1-3.41,1.11,6.48,6.48,0,0,1-4.08-1.24,4.93,4.93,0,0,1-1.89-3.38H510a3.4,3.4,0,0,0,1.24,2.33,4.45,4.45,0,0,0,2.95.91,3,3,0,0,0,2.15-.72,2.44,2.44,0,0,0,.76-1.86,2,2,0,0,0-.53-1.48,3.36,3.36,0,0,0-1.31-.84c-.52-.18-1.23-.38-2.13-.59a18.79,18.79,0,0,1-2.51-.75A4,4,0,0,1,509,94.09a3.2,3.2,0,0,1-.66-2.14,3.58,3.58,0,0,1,1.3-2.86A5.3,5.3,0,0,1,513.17,88,5.57,5.57,0,0,1,517,89.25Z" style="fill:#fff"/><path d="M530.41,89.25a5.34,5.34,0,0,1,1.75,3.37h-1.78a3.57,3.57,0,0,0-1.15-2.32,3.78,3.78,0,0,0-2.67-.92,3.36,3.36,0,0,0-2.24.7,2.37,2.37,0,0,0-.81,1.87,1.94,1.94,0,0,0,.52,1.41,3.46,3.46,0,0,0,1.29.81,19.85,19.85,0,0,0,2.07.57,20.35,20.35,0,0,1,2.56.75,4.16,4.16,0,0,1,1.65,1.21,3.36,3.36,0,0,1,.69,2.23,3.55,3.55,0,0,1-1.28,2.82,5.05,5.05,0,0,1-3.41,1.11,6.51,6.51,0,0,1-4.09-1.24,5,5,0,0,1-1.88-3.38h1.8a3.41,3.41,0,0,0,1.25,2.33,4.44,4.44,0,0,0,2.94.91,3,3,0,0,0,2.15-.72,2.41,2.41,0,0,0,.77-1.86,2,2,0,0,0-.53-1.48,3.36,3.36,0,0,0-1.31-.84,21.62,21.62,0,0,0-2.14-.59,18.59,18.59,0,0,1-2.5-.75,3.92,3.92,0,0,1-1.61-1.15,3.2,3.2,0,0,1-.66-2.14,3.55,3.55,0,0,1,1.3-2.86A5.29,5.29,0,0,1,526.62,88,5.59,5.59,0,0,1,530.41,89.25Z" style="fill:#fff"/><path d="M545.94,88.89a6.34,6.34,0,0,1,2.56,2.57,8.12,8.12,0,0,1,.93,4,8,8,0,0,1-.93,3.95,6.46,6.46,0,0,1-2.56,2.57,7.54,7.54,0,0,1-3.7.91,7.65,7.65,0,0,1-3.72-.91,6.53,6.53,0,0,1-2.58-2.58,8.79,8.79,0,0,1,0-7.91,6.44,6.44,0,0,1,2.58-2.57,7.75,7.75,0,0,1,3.72-.89A7.64,7.64,0,0,1,545.94,88.89Zm-6.35,1.37a4.74,4.74,0,0,0-2,1.95,7.35,7.35,0,0,0,0,6.43,4.81,4.81,0,0,0,2,1.93,5.55,5.55,0,0,0,2.65.64,5.45,5.45,0,0,0,2.61-.64,4.82,4.82,0,0,0,1.95-1.93,7.35,7.35,0,0,0,0-6.43,4.75,4.75,0,0,0-1.95-1.95,5.45,5.45,0,0,0-2.61-.64A5.55,5.55,0,0,0,539.59,90.26Z" style="fill:#fff"/><path d="M564.11,89.53a6.45,6.45,0,0,1,1.57,4.7v8.44h-1.83v-8.3a5,5,0,0,0-1.19-3.62,4.26,4.26,0,0,0-3.26-1.26,4.46,4.46,0,0,0-3.46,1.39,5.83,5.83,0,0,0-1.29,4.1v7.69h-1.88V88.19h1.88v3.55a5,5,0,0,1,2-2.84,5.86,5.86,0,0,1,3.34-1A5.51,5.51,0,0,1,564.11,89.53Z" style="fill:#fff"/></svg>