<svg xmlns="http://www.w3.org/2000/svg" viewBox="0 0 690 430"><title>gambar-profil</title><g id="Cloud"><rect width="690" height="430" style="fill:#57b7dd"/><path d="M202.21,155.41s-4.83-4-12.42,7.8a162,162,0,0,0-10.72,18.66s-1.94,2.42-3.55.54-3.56-6.95-6.68-6.39-4.63,4-4.56,9.2-.19,16.67-.22,17.7-.76,2.44-2.06,1.34-8.44-10.91-12.89-7.24-1.86,18.18-1.61,19.77-.12,2.22-.89,2.53-2.87-3.21-5-5.92-5.11-5.46-7.5-3.13-4.15,12.84,4.16,31l4.4,8.19L152,250c20-.29,28.76-6.38,29.84-9.54s-2.68-4.65-6-5.43-7.44-1.17-7.49-2,.35-1.44,1.9-1.89,15.77-4.32,17.18-9.91-10.5-7.85-12.06-8.56-.58-2,.33-2.43,11.15-5.6,15.9-7.77,7.23-4.89,6.37-8.06-6.25-2.66-8.64-3.31-1-3.44-1-3.44a161.84,161.84,0,0,0,12.27-17.67c7.38-11.89,1.58-14.6,1.58-14.6" style="fill:#ebebeb"/><path d="M141,251c5.45-8.71,15.4-24,23.87-37.22S181,188.66,186.5,180L193,169.69l1.77-2.8.47-.72a2,2,0,0,1,.17-.24l-.15.25c-.1.18-.25.42-.44.74l-1.72,2.83c-1.5,2.45-3.69,6-6.42,10.33-5.45,8.71-13.08,20.68-21.55,33.87s-18.44,28.5-23.94,37.18" style="fill:#e0e0e0"/><path d="M171.28,183.22a3,3,0,0,1,.17.65c.1.42.21,1,.35,1.8.26,1.52.58,3.63.89,6s.55,4.38.76,6c.09.71.18,1.32.24,1.81a2.76,2.76,0,0,1,.06.67,3,3,0,0,1-.17-.65c-.09-.43-.21-1-.33-1.8-.26-1.53-.54-3.64-.85-6s-.59-4.38-.81-6c-.1-.72-.18-1.32-.25-1.81A3.69,3.69,0,0,1,171.28,183.22Z" style="fill:#e0e0e0"/><path d="M174.59,200.35c0-.08,4.3-.92,9.65-1.88s9.69-1.68,9.71-1.6-4.31.92-9.66,1.88S174.6,200.43,174.59,200.35Z" style="fill:#e0e0e0"/><path d="M160.66,220a3.56,3.56,0,0,1,.69,0l1.86.2c1.56.16,3.73.38,6.12.53s4.57.22,6.15.26l1.86,0a3,3,0,0,1,.69,0,3.26,3.26,0,0,1-.69.06c-.44,0-1.08.05-1.86.05-1.58,0-3.76,0-6.17-.17s-4.57-.4-6.13-.62c-.78-.11-1.41-.21-1.85-.29A3.46,3.46,0,0,1,160.66,220Z" style="fill:#e0e0e0"/><path d="M154.27,205.19a2.44,2.44,0,0,1,.31.55l.74,1.56c.62,1.32,1.45,3.15,2.36,5.17s1.71,3.88,2.28,5.22l.66,1.59a2.73,2.73,0,0,1,.21.6,2.44,2.44,0,0,1-.31-.55q-.3-.65-.75-1.56c-.61-1.32-1.45-3.15-2.35-5.18s-1.71-3.87-2.28-5.21c-.27-.63-.49-1.16-.67-1.59A2.33,2.33,0,0,1,154.27,205.19Z" style="fill:#e0e0e0"/><path d="M139.77,221a4.45,4.45,0,0,1,.39.72l1,2c.8,1.68,1.89,4,3.08,6.61s2.24,4.94,3,6.65c.36.82.65,1.5.88,2a4.5,4.5,0,0,1,.29.76A4.45,4.45,0,0,1,148,239l-1-2c-.8-1.68-1.89-4-3.08-6.61s-2.24-4.94-3-6.65c-.36-.82-.65-1.5-.88-2A4.5,4.5,0,0,1,139.77,221Z" style="fill:#e0e0e0"/><path d="M148.28,239.24a4.77,4.77,0,0,1,.87,0l2.36.16c2,.14,4.75.32,7.79.43s5.81.14,7.81.15h2.36a5.45,5.45,0,0,1,.87,0,4.55,4.55,0,0,1-.86.08c-.56,0-1.37.06-2.37.08-2,0-4.77,0-7.82-.08s-5.8-.32-7.8-.51c-1-.09-1.8-.18-2.35-.25A4.79,4.79,0,0,1,148.28,239.24Z" style="fill:#e0e0e0"/><path d="M126.1,188.36a25.08,25.08,0,0,1-.24,4.25A31,31,0,0,1,122,204l-.09-.15h.18L122,204,97.79,247l-.15.27-.17-.27c-7.69-12.28-16.39-26.15-25.57-40.79l-1.26-2-.19-.31h.37l-.18.3a31.22,31.22,0,0,1-3.85-10.77,30.32,30.32,0,0,1-.39-5.61l.15-2.78.42-2.72a31.39,31.39,0,0,1,10.44-17.85,30.05,30.05,0,0,1,8.41-4.95l1.11-.41.56-.21.56-.15,2.26-.59a33,33,0,0,1,8.89-.47c.72.06,1.41.22,2.11.32l1,.16c.34.07.67.18,1,.26l2,.54,1.87.72c.31.12.63.22.92.36l.88.43c.57.3,1.15.58,1.71.87a31,31,0,0,1,9.93,9.17,31.48,31.48,0,0,1,4.33,9.26,29.87,29.87,0,0,1,.77,3.66,19.73,19.73,0,0,1,.28,2.72q0,1.1.06,1.68c0,.38,0,.58,0,.58s0-.2,0-.58,0-.94-.1-1.67a20.49,20.49,0,0,0-.32-2.71,28.05,28.05,0,0,0-.8-3.64,31.82,31.82,0,0,0-4.36-9.17,30.87,30.87,0,0,0-9.89-9.05l-1.7-.85-.86-.43c-.3-.14-.61-.24-.92-.36l-1.86-.7-2-.52c-.33-.09-.66-.19-1-.26l-1-.16c-.69-.1-1.38-.25-2.09-.3a29.83,29.83,0,0,0-4.34-.07,31.26,31.26,0,0,0-4.45.55l-2.23.59-.56.15-.54.2-1.1.41a29.8,29.8,0,0,0-8.3,4.9,31.14,31.14,0,0,0-10.3,17.64c-.13.9-.26,1.79-.4,2.7l-.15,2.74a30.32,30.32,0,0,0,.38,5.53A31.18,31.18,0,0,0,71,203.94l.18.31h-.36l.18-.31,1.25,2,25.55,40.82h-.32l24.33-42.83.09.15h-.19l.1-.15a31.51,31.51,0,0,0,4-11.34c.2-1.38.25-2.44.3-3.16q0-.52,0-.81C126.09,188.45,126.1,188.36,126.1,188.36Z" style="fill:#e0e0e0"/><path d="M115.25,188a1.4,1.4,0,0,1,0-.3q0-.33-.06-.9c0-.2,0-.42,0-.66s-.08-.5-.13-.79a13,13,0,0,0-.39-1.94,18.14,18.14,0,0,0-2.09-5,18.84,18.84,0,0,0-12.66-8.84,18.79,18.79,0,0,0-9.83.8,17.37,17.37,0,0,0-4.74,2.54,21.14,21.14,0,0,0-2.13,1.8,21.37,21.37,0,0,0-1.84,2.16A18.15,18.15,0,0,0,78.62,182a18.52,18.52,0,0,0,0,11.8A18,18,0,0,0,81.25,199a21.44,21.44,0,0,0,1.82,2.18A22.54,22.54,0,0,0,85.19,203a20.76,20.76,0,0,0,2.29,1.48,19.5,19.5,0,0,0,2.44,1.08,18.76,18.76,0,0,0,22.53-7.93,17.92,17.92,0,0,0,2.12-5,13.55,13.55,0,0,0,.4-2c0-.28.1-.54.13-.78l0-.66c0-.38,0-.68.07-.9a1.61,1.61,0,0,1,0-.31v.31q0,.33,0,.9l0,.67c0,.24-.07.5-.11.79a13.59,13.59,0,0,1-.37,2,18.12,18.12,0,0,1-2.07,5.07,19.2,19.2,0,0,1-4.82,5.42,18.91,18.91,0,0,1-8,3.57,19.11,19.11,0,0,1-10-.83,20.9,20.9,0,0,1-2.49-1.09A21.65,21.65,0,0,1,85,203.28a20.91,20.91,0,0,1-2.16-1.85,19.85,19.85,0,0,1-1.87-2.21A18.45,18.45,0,0,1,78.2,194a18.86,18.86,0,0,1,0-12.06A18.42,18.42,0,0,1,81,176.63a23.42,23.42,0,0,1,1.88-2.2A22,22,0,0,1,85,172.6a19.44,19.44,0,0,1,2.35-1.5A20.14,20.14,0,0,1,89.88,170a19,19,0,0,1,18,2.83,18.91,18.91,0,0,1,4.8,5.45,17.87,17.87,0,0,1,2,5.08,13,13,0,0,1,.36,2c0,.28.09.55.11.79s0,.47,0,.67c0,.38,0,.67,0,.9Z" style="fill:#e0e0e0"/><polygon points="95.97 196.81 84.97 189.15 87.65 185.31 95.02 190.45 104.55 178.34 108.23 181.23 95.97 196.81" style="fill:#e0e0e0"/><path d="M403.51,54.84a36.53,36.53,0,0,1,9.35,2.47l6.87-5.76,11.8,9-3.72,8.15a36.23,36.23,0,0,1,4.87,8.36l8.93.78,2,14.7-8.39,3.13a36.42,36.42,0,0,1-2.47,9.35l5.76,6.87-9,11.8L421.36,120a36.74,36.74,0,0,1-8.35,4.87l-.79,8.92-14.7,2-3.13-8.4a36.12,36.12,0,0,1-9.35-2.47l-6.87,5.76-11.8-9,3.72-8.16a36.16,36.16,0,0,1-4.87-8.35l-8.93-.79-2-14.69,8.39-3.14a36.53,36.53,0,0,1,2.47-9.35l-5.76-6.87,9-11.8,8.16,3.72a36.37,36.37,0,0,1,8.35-4.87l.79-8.93,14.69-2,3.14,8.39ZM399.1,75.11a15.91,15.91,0,1,0,16,12.17A15.92,15.92,0,0,0,399.1,75.11Z" style="fill:#f5f5f5;fill-rule:evenodd"/><path d="M269.68,101.83a23.52,23.52,0,0,1,6.07,1.6l4.46-3.74,7.66,5.83-2.41,5.3a24,24,0,0,1,3.16,5.42l5.79.51,1.3,9.54-5.45,2a23.52,23.52,0,0,1-1.6,6.07l3.73,4.46-5.83,7.66-5.29-2.42a23.24,23.24,0,0,1-5.42,3.16l-.51,5.8-9.54,1.29-2-5.45a23.52,23.52,0,0,1-6.07-1.6L253.23,151l-7.66-5.83,2.42-5.3a23.63,23.63,0,0,1-3.17-5.42L239,134l-1.29-9.54,5.44-2a23.54,23.54,0,0,1,1.61-6.07l-3.74-4.46,5.83-7.66,5.29,2.41a23.45,23.45,0,0,1,5.43-3.16l.51-5.79,9.54-1.3,2,5.45ZM266.82,115a10.33,10.33,0,1,0,10.38,7.9A10.33,10.33,0,0,0,266.82,115Z" style="fill:#ebebeb;fill-rule:evenodd"/><path d="M349.73,171.56a12.48,12.48,0,0,1,3.45,2.28,16.87,16.87,0,0,1,4.75,17.66A17,17,0,0,1,353,199a17.06,17.06,0,0,1-9.05,4.14,17.05,17.05,0,0,1-17.79-9.75,16.11,16.11,0,0,1-1.43-4.94,15.88,15.88,0,0,1,.06-4.92,17.12,17.12,0,0,1,3.71-8.22,16.82,16.82,0,0,1,6.29-4.7,16.6,16.6,0,0,1,11.16-.78,12.61,12.61,0,0,1,3.78,1.69,37.09,37.09,0,0,0-3.87-1.32,16.59,16.59,0,0,0-10.79,1,16.31,16.31,0,0,0-9.41,12.44A16.37,16.37,0,0,0,327,193a16.17,16.17,0,0,0,16.81,9.22,15.05,15.05,0,0,0,4.67-1.34,15.51,15.51,0,0,0,3.92-2.53,16.31,16.31,0,0,0,4.76-7.13,16.14,16.14,0,0,0,.67-7.48,16.6,16.6,0,0,0-4.93-9.66A40.6,40.6,0,0,0,349.73,171.56Z" style="fill:#ebebeb"/><path d="M367.54,158.11a3.73,3.73,0,0,1,.13-.57l.45-1.73c.43-1.57,1.06-3.84,1.86-6.78l.07.17-13.68-7.4.3-.05-6.2,7.06-.11.13-.17,0a37.76,37.76,0,0,0-10-1.06H340l-.1-.17-4.58-8.21.39.16L320.79,144l.27-.39c.18,2.91.38,6.11.59,9.39v.24l-.2.12a38,38,0,0,0-7.82,6.29l-.17.19-.24-.07-9-2.58.49-.2c-2.35,4.28-4.87,8.91-7.47,13.65l-.09-.55,7,6.22.21.18-.07.27a38.14,38.14,0,0,0-1.08,10V187l-.25.14-8.22,4.57.23-.55,4.36,14.94-.49-.34,9.39-.58.29,0,.15.25a37.42,37.42,0,0,0,6.26,7.81h0l.13.48h0v.05l0,.08,0,.14-.08.28-.16.57-.33,1.14-.65,2.26-1.29,4.51-.23-.55,13.64,7.48-.58.1,6.23-7,.19-.21.28.06a37.49,37.49,0,0,0,10,1.1h.28l.13.25,4.56,8.22-.53-.21,14.94-4.34-.32.45c-.19-3.19-.37-6.32-.56-9.39v-.26l.22-.13a37.71,37.71,0,0,0,7.83-6.27l.18-.18.24.07,9,2.6-.46.19c2.64-4.79,5.14-9.31,7.51-13.62l.08.45-7-6.25-.16-.13.05-.21a38,38,0,0,0,1.12-10v-.19l.16-.09,8.24-4.54-.14.33-4.28-15,.22.15-9.39.51h-.1l0-.08a39.49,39.49,0,0,0-4.51-6.14L368,158.57a4.7,4.7,0,0,1-.42-.46,3.4,3.4,0,0,1,.48.4c.3.29.76.72,1.34,1.34a36.92,36.92,0,0,1,4.66,6.09l-.14-.08,9.38-.63h.17l.05.17c1.25,4.21,2.71,9.13,4.42,14.91l.06.22-.2.11-8.2,4.59.16-.28a38.5,38.5,0,0,1-1.08,10.17l-.11-.34,7.06,6.21.22.19-.14.26c-2.36,4.32-4.84,8.85-7.46,13.66l-.15.28-.31-.09-9-2.57.41-.12a37.88,37.88,0,0,1-8,6.43l.21-.39c.19,3.07.39,6.2.58,9.38l0,.35-.34.1-14.93,4.37-.35.1-.18-.31c-1.5-2.71-3-5.44-4.57-8.22l.42.23a38.55,38.55,0,0,1-10.21-1.1l.47-.15-6.23,7-.25.29-.33-.18-13.65-7.48-.33-.19.1-.36,1.29-4.51.65-2.27.33-1.13L314,214l.08-.29,0-.14,0-.07v-.05h0l.13.48h0a38.63,38.63,0,0,1-6.42-8l.44.23-9.39.57-.38,0-.11-.37c-1.49-5.13-3-10.2-4.34-14.93l-.11-.36.33-.19,8.23-4.55-.24.41a38.6,38.6,0,0,1,1.12-10.2l.14.45-7-6.23-.27-.24.17-.31c2.61-4.73,5.15-9.35,7.5-13.63l.17-.3.32.09,9,2.6-.41.11a38.88,38.88,0,0,1,8-6.4l-.19.37c-.2-3.28-.38-6.48-.56-9.39v-.3l.29-.09L335.52,139l.26-.08.13.24c1.6,2.89,3.13,5.67,4.54,8.23l-.28-.16a38.36,38.36,0,0,1,10.16,1.14l-.28.09c2.25-2.53,4.36-4.89,6.26-7l.13-.15.17.1,13.59,7.56.11.06,0,.11q-1.3,4.35-2,6.68c-.23.74-.4,1.3-.53,1.73A5,5,0,0,1,367.54,158.11Z" style="fill:#ebebeb"/><polygon points="404.12 173.73 390.56 119.83 445.71 118.91 404.12 173.73" style="fill:#ebebeb"/><rect x="454.42" y="116.81" width="31.34" height="126.73" transform="translate(42.39 445.73) rotate(-52.81)" style="fill:#ebebeb"/><path d="M502.77,311.51l7,15.89S496,339.85,497,342.91l31.28-12.47-9.9-25.2Z" style="fill:#57b7dd"/><path d="M502.77,311.51l7,15.89S496,339.85,497,342.91l31.28-12.47-9.9-25.2Z" style="opacity:0.5"/><path d="M528.28,330.44l-1.1-2.5L497.6,340.83s-1.15,1.17-.6,2.08Z" style="fill:#263238"/><path d="M557.86,334l8.77,15s-12.28,13.94-10.93,16.87l29.66-16L572.66,326Z" style="fill:#57b7dd"/><path d="M557.86,334l8.77,15s-12.28,13.94-10.93,16.87l29.66-16L572.66,326Z" style="opacity:0.5"/><path d="M585.36,349.91,584,347.55l-27.93,16.18s-1,1.29-.36,2.14Z" style="fill:#263238"/><path d="M519.59,123.86l-19.22,1.5-.64-10.76s-7.75-.11-8.91-7.69-2.3-25.18-2.3-25.18h0a26.65,26.65,0,0,1,27-.4l1.24.71Z" style="fill:#eebd9d"/><path d="M499.7,114.49a17.8,17.8,0,0,0,9.5-4.2s-1.68,6-9.35,6.34Z" style="fill:#d79870"/><path d="M516.9,90c.12-.07,5-2.27,5.56,2.94s-4.78,4.7-4.81,4.55S516.9,90,516.9,90Z" style="fill:#eebd9d"/><path d="M519,95.38s.1.05.26.1a.93.93,0,0,0,.68-.06,2.23,2.23,0,0,0,.82-2.12A3.05,3.05,0,0,0,520.4,92a1.07,1.07,0,0,0-.76-.62.47.47,0,0,0-.51.31c0,.15,0,.25,0,.26s-.12-.07-.1-.29a.57.57,0,0,1,.17-.35.68.68,0,0,1,.49-.19,1.29,1.29,0,0,1,1,.71,3.07,3.07,0,0,1,.48,1.42,2.37,2.37,0,0,1-1.08,2.39,1,1,0,0,1-.85,0C519.06,95.5,519,95.39,519,95.38Z" style="fill:#d79870"/><path d="M491.8,93.65a1.09,1.09,0,0,0,1.19.95,1,1,0,0,0,1-1.14,1.09,1.09,0,0,0-1.19-.94A1,1,0,0,0,491.8,93.65Z" style="fill:#263238"/><path d="M491.46,92.2c.15.12.89-.6,2.05-.76s2.11.3,2.21.14-.12-.31-.53-.53a3,3,0,0,0-1.79-.28,2.83,2.83,0,0,0-1.61.78C491.47,91.87,491.38,92.15,491.46,92.2Z" style="fill:#263238"/><path d="M503.14,92.34a1.09,1.09,0,0,0,1.19,1,1.05,1.05,0,0,0,1-1.14,1.08,1.08,0,0,0-1.19-.94A1,1,0,0,0,503.14,92.34Z" style="fill:#263238"/><path d="M503,90.81c.15.12.89-.6,2.06-.76s2.1.3,2.21.14-.12-.31-.53-.53a3.06,3.06,0,0,0-1.8-.29,2.87,2.87,0,0,0-1.61.79C503,90.48,502.88,90.75,503,90.81Z" style="fill:#263238"/><path d="M499.93,100.05A7.68,7.68,0,0,0,498,100c-.3,0-.59,0-.67-.2a1.51,1.51,0,0,1,.08-.91c.17-.76.36-1.56.56-2.39a38.53,38.53,0,0,0,1.14-6.21,39.18,39.18,0,0,0-1.64,6.1c-.18.84-.36,1.64-.52,2.4a1.68,1.68,0,0,0,0,1.19.77.77,0,0,0,.55.37,2.16,2.16,0,0,0,.51,0A7.65,7.65,0,0,0,499.93,100.05Z" style="fill:#263238"/><path d="M503.48,100.37c-.19,0,0,1.29-1,2.34s-2.33,1.1-2.31,1.27.33.21.9.14a3.16,3.16,0,0,0,1.94-1,2.76,2.76,0,0,0,.74-1.95C503.75,100.65,503.56,100.35,503.48,100.37Z" style="fill:#263238"/><path d="M502,86.28c.16.3,1.3,0,2.69,0s2.55.19,2.69-.12c.06-.15-.17-.42-.66-.66a4.44,4.44,0,0,0-2.07-.42,4.55,4.55,0,0,0-2,.54C502.15,85.85,501.94,86.14,502,86.28Z" style="fill:#263238"/><path d="M491.41,88.77c.24.23,1-.16,2-.3s1.81-.08,2-.38-.1-.39-.49-.59a2.9,2.9,0,0,0-3.17.54C491.38,88.36,491.3,88.65,491.41,88.77Z" style="fill:#263238"/><path d="M484.15,77.46a2.86,2.86,0,0,1,.68-2.65,2,2,0,0,1,2.6-.17,2.35,2.35,0,0,1,1.6-3.09c1.23-.25,2.42.53,3.66.69a5.65,5.65,0,0,0,3.48-.9c1.06-.61,2-1.39,3.1-2a9.8,9.8,0,0,1,13.21,4,4.35,4.35,0,0,1,4.81,1.09,7.15,7.15,0,0,1,1.79,4.83,16.72,16.72,0,0,1-.39,3.52,2.93,2.93,0,0,0,0,.29c.5,4.19.72,9.15-1,9.43-3.1.48-3.18-5.47-3.18-5.47-4-.93-3.4-6.84-4.47-7.57s-3.35-2.46-10.75,2.73A15.62,15.62,0,0,1,490,84.54h-.32a7.44,7.44,0,0,1-2.16-.58,4.13,4.13,0,0,1-1.95-1.64,2.24,2.24,0,0,1,.1-2.44A4.86,4.86,0,0,1,484.15,77.46Z" style="fill:#263238"/><polygon points="499.7 121.19 500.56 151.32 519.3 110.97 518.83 107.23 499.7 121.19" style="fill:#ebebeb"/><path d="M512.14,211.24c-.69.22-39.71,39.69-38.83,46.78S502,317.6,502,317.6l19.82-9.77-18.59-46,.24-2.86,22.72-18.62-1.21-29.94Z" style="fill:#263238"/><path d="M520.55,219c.45.68,7.21,62.68,9,65.89s29,56.14,29,56.14l20.15-8.12-24.6-58.17,2.8-55.06-1.52-15.54-30.42,6.23Z" style="fill:#263238"/><path d="M529.22,283.82a4,4,0,0,1-.13-.62c-.08-.45-.17-1.05-.29-1.79-.25-1.6-.59-3.85-1-6.6-.81-5.61-1.92-13.29-3.14-21.78s-2.23-16.18-3-21.8c-.35-2.76-.65-5-.86-6.61q-.13-1.12-.21-1.8a5.89,5.89,0,0,1-.05-.64,3.53,3.53,0,0,1,.14.62c.07.45.17,1,.29,1.79.24,1.61.58,3.85,1,6.6.81,5.61,1.91,13.3,3.13,21.78s2.23,16.18,3,21.8c.36,2.76.65,5,.86,6.62q.13,1.13.21,1.8A3.7,3.7,0,0,1,529.22,283.82Z" style="fill:#455a64"/><path d="M553.57,273a29.88,29.88,0,0,1-1.18,4.91,30.79,30.79,0,0,1-1.58,4.8,58.07,58.07,0,0,1,2.76-9.71Z" style="fill:#455a64"/><path d="M556.61,287a5.83,5.83,0,0,1-1.1-1.53,15.33,15.33,0,0,1-1.61-4.26,14.74,14.74,0,0,1-.26-4.54,5.66,5.66,0,0,1,.38-1.85,24.58,24.58,0,0,0,.31,6.3A25.46,25.46,0,0,0,556.61,287Z" style="fill:#455a64"/><path d="M496.69,255.13a8.24,8.24,0,0,1,3.25,2,8,8,0,0,1,2.32,3c-.11.08-1.07-1.33-2.61-2.73S496.63,255.25,496.69,255.13Z" style="fill:#455a64"/><path d="M499.75,253.3a6.12,6.12,0,0,1,1.92,2.18,6,6,0,0,1,1.09,2.69,24.32,24.32,0,0,1-1.46-2.46A25.7,25.7,0,0,1,499.75,253.3Z" style="fill:#455a64"/><path d="M502.44,162.85l5,24.75,4.06,34.54s16.74-2.34,23.87-4.6c8.27-2.62,26.27-4.85,26.27-4.85l-3,3c6.44-1.8,10.54-7.95,10.54-7.95-11.1-10.29-20.57-31.47-20.57-31.47l-8.44-41.91s-1.28-5.92-2.06-8.55-13.59-11.11-15.36-12.18l-1.12-.53-.36-3.35-1.32-.79L506,121.56a15,15,0,0,0-4.83,9.42,108.86,108.86,0,0,0-.6,15.76C500.77,151.65,502.44,162.85,502.44,162.85Z" style="fill:#57b7dd"/><g style="opacity:0.2"><path d="M502.44,162.85l5,24.75,4.06,34.54s16.74-2.34,23.87-4.6c8.27-2.62,26.27-4.85,26.27-4.85l-3,3c6.44-1.8,10.54-7.95,10.54-7.95-11.1-10.29-20.57-31.47-20.57-31.47l-8.44-41.91s-1.28-5.92-2.06-8.55-13.59-11.11-15.36-12.18l-1.12-.53-.36-3.35-1.32-.79L506,121.56a15,15,0,0,0-4.83,9.42,108.86,108.86,0,0,0-.6,15.76C500.77,151.65,502.44,162.85,502.44,162.85Z"/></g><path d="M512,120s-7.33,3.93-8.6,7.27,2.5,39.89,2.5,39.89l-26.31.49-.09,15.68s41.81,3.31,43.43,1.05c2.2-3.06,4.76-31.63,4.76-31.63l1-20.55S526.18,116.51,512,120Z" style="fill:#57b7dd"/><g style="opacity:0.30000000000000004"><path d="M507.43,187.6a25.16,25.16,0,0,0,10.53,1c3.71-.35,7.48-2.38,8.88-5.83,1.08-2.64.63-5.61.79-8.46.14-2.47.76-4.89,1.13-7.34s-.9-7-1.7-9.29c0,0-.94,17-3.6,24.1a5.87,5.87,0,0,1-1.62,2.6,6.51,6.51,0,0,1-3.44.95,100,100,0,0,1-11.46-.23" style="fill:#57b7dd"/></g><path d="M528.56,134.4a1.83,1.83,0,0,1,0,.38c0,.26,0,.62,0,1.09,0,1-.11,2.39-.2,4.2s-.21,4.05-.35,6.64-.24,5.54-.56,8.79-.62,6.81-1,10.62-.88,7.9-1.6,12.16a25.64,25.64,0,0,1-.73,3.22,6.34,6.34,0,0,1-1.89,2.85,4.78,4.78,0,0,1-3.28,1.16c-1.16,0-2.32,0-3.5,0-4.7-.12-9.55-.36-14.52-.63-7.47-.41-14.67-.88-21.4-1.35h-.19v-.2c0-5.57.06-10.81.09-15.65v-.18h.18l25.4-.54,7.11-.13,1.87,0c.42,0,.64,0,.64,0l-.64,0-1.87.08-7.1.22-25.4.7.18-.18c0,4.84,0,10.08-.05,15.65l-.19-.2c6.72.46,13.92.92,21.39,1.33,5,.27,9.82.51,14.51.63,1.17,0,2.34.05,3.48,0a4.42,4.42,0,0,0,3-1.07,5.89,5.89,0,0,0,1.78-2.66,26.23,26.23,0,0,0,.71-3.16c.74-4.24,1.2-8.32,1.64-12.13s.78-7.36,1.08-10.61.45-6.2.63-8.78.3-4.81.42-6.64.22-3.21.28-4.19c0-.46.07-.82.09-1.09A2.24,2.24,0,0,1,528.56,134.4Z" style="fill:#57b7dd"/><path d="M484.64,183.08a66.74,66.74,0,0,1-.18-7.6,68.31,68.31,0,0,1,.26-7.6,66.74,66.74,0,0,1,.18,7.6A68.47,68.47,0,0,1,484.64,183.08Z" style="fill:#57b7dd"/><path d="M481.85,170.26c-.05,0,.21-.32.71-.16a.83.83,0,0,1,.54.7.93.93,0,0,1-1.6.74.9.9,0,0,1-.26-.83c.12-.49.47-.6.48-.55s-.16.24-.17.59a.6.6,0,0,0,.83.59.58.58,0,0,0,.32-.52.51.51,0,0,0-.27-.44C482.13,170.2,481.88,170.31,481.85,170.26Z" style="fill:#57b7dd"/><g style="opacity:0.5"><path d="M512,120s-7.33,3.93-8.6,7.27,2.5,39.89,2.5,39.89l-26.31.49-.09,15.68s41.81,3.31,43.43,1.05c2.2-3.06,4.76-31.63,4.76-31.63l1-20.55S526.18,116.51,512,120Z"/><g style="opacity:0.30000000000000004"><path d="M507.43,187.6a25.16,25.16,0,0,0,10.53,1c3.71-.35,7.48-2.38,8.88-5.83,1.08-2.64.63-5.61.79-8.46.14-2.47.76-4.89,1.13-7.34s-.9-7-1.7-9.29c0,0-.94,17-3.6,24.1a5.87,5.87,0,0,1-1.62,2.6,6.51,6.51,0,0,1-3.44.95,100,100,0,0,1-11.46-.23"/></g><path d="M528.56,134.4a1.83,1.83,0,0,1,0,.38c0,.26,0,.62,0,1.09,0,1-.11,2.39-.2,4.2s-.21,4.05-.35,6.64-.24,5.54-.56,8.79-.62,6.81-1,10.62-.88,7.9-1.6,12.16a25.64,25.64,0,0,1-.73,3.22,6.34,6.34,0,0,1-1.89,2.85,4.78,4.78,0,0,1-3.28,1.16c-1.16,0-2.32,0-3.5,0-4.7-.12-9.55-.36-14.52-.63-7.47-.41-14.67-.88-21.4-1.35h-.19v-.2c0-5.57.06-10.81.09-15.65v-.18h.18l25.4-.54,7.11-.13,1.87,0c.42,0,.64,0,.64,0l-.64,0-1.87.08-7.1.22-25.4.7.18-.18c0,4.84,0,10.08-.05,15.65l-.19-.2c6.72.46,13.92.92,21.39,1.33,5,.27,9.82.51,14.51.63,1.17,0,2.34.05,3.48,0a4.42,4.42,0,0,0,3-1.07,5.89,5.89,0,0,0,1.78-2.66,26.23,26.23,0,0,0,.71-3.16c.74-4.24,1.2-8.32,1.64-12.13s.78-7.36,1.08-10.61.45-6.2.63-8.78.3-4.81.42-6.64.22-3.21.28-4.19c0-.46.07-.82.09-1.09A2.24,2.24,0,0,1,528.56,134.4Z"/><path d="M484.64,183.08a66.74,66.74,0,0,1-.18-7.6,68.31,68.31,0,0,1,.26-7.6,66.74,66.74,0,0,1,.18,7.6A68.47,68.47,0,0,1,484.64,183.08Z"/><path d="M481.85,170.26c-.05,0,.21-.32.71-.16a.83.83,0,0,1,.54.7.93.93,0,0,1-1.6.74.9.9,0,0,1-.26-.83c.12-.49.47-.6.48-.55s-.16.24-.17.59a.6.6,0,0,0,.83.59.58.58,0,0,0,.32-.52.51.51,0,0,0-.27-.44C482.13,170.2,481.88,170.31,481.85,170.26Z"/></g><path d="M540.25,138s13.69,17.9,15.35,22.78.38,11.88-2.4,15.23-5,2-5,2Z" style="fill:#57b7dd"/><g style="opacity:0.5"><path d="M540.25,138s13.69,17.9,15.35,22.78.38,11.88-2.4,15.23-5,2-5,2Z"/></g><path d="M547.67,176.51a14.46,14.46,0,0,1-3.43.81,14.27,14.27,0,0,1-3.51.38,14.46,14.46,0,0,1,3.43-.81A14.27,14.27,0,0,1,547.67,176.51Z" style="fill:#263238"/><path d="M550.3,189.71a4.4,4.4,0,0,1,.37.95c.21.61.52,1.5.93,2.59a77.24,77.24,0,0,0,3.68,8.3,87.16,87.16,0,0,0,4.6,7.82c.64,1,1.16,1.76,1.53,2.29a4.76,4.76,0,0,1,.54.87,5,5,0,0,1-.67-.77c-.41-.5-1-1.26-1.66-2.21a68.05,68.05,0,0,1-4.73-7.81,61.68,61.68,0,0,1-3.58-8.39c-.37-1.11-.64-2-.8-2.65A4.62,4.62,0,0,1,550.3,189.71Z" style="fill:#263238"/><g style="opacity:0.30000000000000004"><path d="M551.23,191.83c2.17,3.87,4.4,7.81,7.71,10.77a20.29,20.29,0,0,1,3.36,3.25,4.12,4.12,0,0,1,.43,4.41,1.41,1.41,0,0,1-1.37.74,1.75,1.75,0,0,1-.89-.73,53.13,53.13,0,0,1-9.09-17.85"/></g><g style="opacity:0.30000000000000004"><path d="M549.42,177.88c1.88-1.34,2.53-3.91,2.26-6.2a23.05,23.05,0,0,0-2.28-6.51,107.33,107.33,0,0,1-6.67-19.56l-1.33-5,6.77,35.43Z"/></g><path d="M515.53,118.39a30,30,0,0,1,2.55-2.55,28.4,28.4,0,0,1,2.55-2.55,10.11,10.11,0,0,1-2.24,2.86A10.27,10.27,0,0,1,515.53,118.39Z" style="fill:#263238"/><path d="M514.14,121.43c0,.07-.79.31-2,.91a16.38,16.38,0,0,0-4.24,3.07,16.11,16.11,0,0,0-3,4.29c-.59,1.21-.82,2-.9,2s0-.22.1-.59a9,9,0,0,1,.52-1.55,14.36,14.36,0,0,1,7.41-7.51,9.44,9.44,0,0,1,1.54-.53C513.93,121.43,514.14,121.4,514.14,121.43Z" style="fill:#263238"/><path d="M550.92,181.44s-.09-.11-.22-.34l-.55-1c-.49-1-1.15-2.26-2-3.85v0c-.86-3.92-2.07-9.64-3.38-16-1.22-6-2.32-11.42-3.13-15.43-.37-1.93-.68-3.51-.9-4.68l-.22-1.28a1.39,1.39,0,0,1,0-.45,2.21,2.21,0,0,1,.13.43c.08.34.18.76.31,1.27.25,1.16.6,2.73,1,4.65.84,4,2,9.42,3.25,15.4,1.32,6.37,2.48,12.1,3.25,16l0,0L550.3,180l.47,1.06A2.09,2.09,0,0,1,550.92,181.44Z" style="fill:#263238"/><path d="M505.42,167.12a7.33,7.33,0,0,1-.2-1.29c-.1-.92-.23-2.11-.39-3.56-.3-3-.7-7.15-1.11-11.73s-.75-8.74-1-11.75c-.1-1.45-.19-2.65-.25-3.56a7.38,7.38,0,0,1,0-1.32,7.6,7.6,0,0,1,.2,1.3c.1.92.23,2.11.38,3.56.31,3,.7,7.15,1.11,11.73s.76,8.74,1,11.75c.1,1.44.18,2.64.25,3.56A7.25,7.25,0,0,1,505.42,167.12Z" style="fill:#263238"/><path d="M479.89,169.47s-5.68-4.31-7.06-4.57c-1.06-.2-7.4-.09-10.31,0a2.08,2.08,0,0,0-2.09,2,.75.75,0,0,0,0,.21,1.89,1.89,0,0,0,1.38,1.44,2.19,2.19,0,0,0-1.53,2.07c0,1.65,2,2,2,2a1.82,1.82,0,0,0-.28.25,2,2,0,0,0,1,3.29l.9.21a2,2,0,0,0-1.2,1.63c0,2.17,4.9,2.58,4.9,2.58s12,1.9,12.3,1.82S479.89,169.47,479.89,169.47Z" style="fill:#eebd9d"/><path d="M463.64,162.31a3.51,3.51,0,0,0,1.43,2.92l6.71-.26s-5-1.73-5.71-2.58a6,6,0,0,0-.95-.94A1,1,0,0,0,463.64,162.31Z" style="fill:#eebd9d"/><path d="M468.62,164.9a9.71,9.71,0,0,1-3.06.22,12.49,12.49,0,0,1-3.06-.22,9.75,9.75,0,0,1,3.07-.22A12.37,12.37,0,0,1,468.62,164.9Z" style="fill:#d79870"/><path d="M467.12,168.64a6.07,6.07,0,0,1-2.65.27,6.37,6.37,0,0,1-2.62-.45,11.53,11.53,0,0,1,2.64,0A12.47,12.47,0,0,1,467.12,168.64Z" style="fill:#d79870"/><path d="M470.53,168.17c.1.06,0,.42-.41.67s-.76.21-.78.09.25-.26.54-.46S470.43,168.1,470.53,168.17Z" style="fill:#d79870"/><path d="M467.85,172.89A9.54,9.54,0,0,1,465,173a9.76,9.76,0,0,1-2.87-.31,9.86,9.86,0,0,1,2.89-.12A9.56,9.56,0,0,1,467.85,172.89Z" style="fill:#d79870"/><path d="M471.69,171.1c.05,0,.15.12.19.38a1.38,1.38,0,0,1-.29,1,1.34,1.34,0,0,1-.89.51c-.26,0-.42,0-.42-.09s.58-.19,1-.69S471.57,171.12,471.69,171.1Z" style="fill:#d79870"/><path d="M468.87,177.05a8.11,8.11,0,0,1-2.61-.1,7.85,7.85,0,0,1-2.55-.54,16.13,16.13,0,0,1,5.16.64Z" style="fill:#d79870"/><path d="M472.61,174.94c.05,0,.14.14.13.4a1.68,1.68,0,0,1-.36.91c-.49.59-1,.81-1.1.73s.35-.5.76-1S472.5,175,472.61,174.94Z" style="fill:#d79870"/><path d="M556.32,216.06a7.68,7.68,0,0,0,5.82-3.67c.13-.23.25-.54.07-.75a.67.67,0,0,0-.5-.15,15.66,15.66,0,0,0-5.51.95.77.77,0,0,0-.5.37.78.78,0,0,0,0,.45c.23.91.47,1.82.7,2.72" style="fill:#57b7dd"/><g style="opacity:0.4"><path d="M556.32,216.06a7.68,7.68,0,0,0,5.82-3.67c.13-.23.25-.54.07-.75a.67.67,0,0,0-.5-.15,15.66,15.66,0,0,0-5.51.95.77.77,0,0,0-.5.37.78.78,0,0,0,0,.45c.23.91.47,1.82.7,2.72"/></g><path d="M499.7,121.19s-2.76,9.27-2,8.74,2.41-2,2.41-2Z" style="fill:#ebebeb"/><path d="M499.86,125.47l-1.51,3.6a5.27,5.27,0,0,0-.29,1.17c-.12,1-.27,2.86.33,3a2,2,0,0,0,1.62-.67Z" style="fill:#263238"/><path d="M546.68,126s-14.77-5.77-22.94-.68-9.67,13.21-14.54,13.21c-9.5,0-9.19-6.7-9.19-6.7l-2,.61c0,1.37-2.2,11.21,7.81,12.43S520,132.49,529,132.48a29.93,29.93,0,0,1,15.84,4.87l6.47-4.09Z" style="fill:#263238"/><path d="M508.79,144.75a13.88,13.88,0,0,0,5.69-6.53c2.3-5.3,7.22-11.34,11.34-12.86s13.62-2.58,20.19,1.71l4.21,5.68-5.46,3.55a50.41,50.41,0,0,0-9.63-3.86c-6.79-1.9-10.92.25-14.87,4-.24.24-.47.47-.67.69a44.39,44.39,0,0,1-6.25,5.53C511.41,144,509.67,144.77,508.79,144.75Z" style="fill:#455a64"/><path d="M203,64.35c-8.75,1.35-15.18-6-17.22-12.56-1.89-6-2.79-12.33-5.45-18.09-3.71-8-13.54-11.75-22.36-11S140.28,27.86,132.47,32l2.16,48.38s17-18.1,25.16-18.43c13.63-.55,12.89,21.85,26.12,25.16,0,0,18.55,5,31.09-11.17,8-10.28,8.67-22.77,8.67-22.77S219.57,61.8,203,64.35Z" style="fill:#57b7dd"/><g style="opacity:0.22"><path d="M203,64.35c-8.75,1.35-15.18-6-17.22-12.56-1.89-6-2.79-12.33-5.45-18.09-3.71-8-13.54-11.75-22.36-11S140.28,27.86,132.47,32l2.16,48.38s17-18.1,25.16-18.43c13.63-.55,12.89,21.85,26.12,25.16,0,0,18.55,5,31.09-11.17,8-10.28,8.67-22.77,8.67-22.77S219.57,61.8,203,64.35Z"/></g><path d="M132.12,24c.11,0,2.5,51.37,5.32,114.75s5,114.77,4.89,114.77-2.5-51.36-5.32-114.75S132,24,132.12,24Z" style="fill:#263238"/><g style="opacity:0.2"><path d="M178.9,48.45A59.14,59.14,0,0,0,185.34,63c2.52,4,6.35,7.28,10.93,8.23a10.36,10.36,0,0,1,2.46.64,2.37,2.37,0,0,1,1.46,1.92c0,1.27-1.27,2.1-2.41,2.66a20.06,20.06,0,0,1-5,1.94c-1.77.33-3.16.51-4.37-.82a25.48,25.48,0,0,1-3.17-3.79c-4-6.82-6-16.56-6.3-24.27"/></g><path d="M190.74,79.52a2.14,2.14,0,0,1-.39-.23,11.28,11.28,0,0,1-1-.77A17.67,17.67,0,0,1,186.07,75a26.69,26.69,0,0,1-3.23-6.29,68,68,0,0,1-2.4-8.31,92.75,92.75,0,0,1-2.23-15.54c-.11-2-.13-3.63-.13-4.75,0-.52,0-.95,0-1.3a1.48,1.48,0,0,1,0-.45,2.39,2.39,0,0,1,0,.45c0,.35,0,.77.05,1.29.05,1.12.11,2.75.26,4.74a105.65,105.65,0,0,0,2.35,15.46,75.67,75.67,0,0,0,2.35,8.28,28,28,0,0,0,3.11,6.25,19.66,19.66,0,0,0,3.09,3.56C190.25,79.14,190.76,79.49,190.74,79.52Z" style="fill:#263238"/><polygon points="79.3 263.75 195.02 282.69 195.02 263.75 79.3 263.75" style="fill:#e0e0e0"/><polygon points="214.12 306.54 329.84 325.49 329.84 306.54 214.12 306.54" style="fill:#e0e0e0"/><polygon points="348.02 347.48 463.74 366.42 463.74 347.48 348.02 347.48" style="fill:#e0e0e0"/><polygon points="481.73 380.06 597.45 399 597.45 380.06 481.73 380.06" style="fill:#e0e0e0"/><rect x="79.3" y="249.56" width="115.72" height="14.19" style="fill:#228eaf"/><g style="opacity:0.30000000000000004"><rect x="158.91" y="249.56" width="36.11" height="14.19"/></g><rect x="214.12" y="292.35" width="115.72" height="14.19" style="fill:#228eaf"/><g style="opacity:0.30000000000000004"><rect x="293.73" y="292.35" width="36.11" height="14.19"/></g><rect x="348.02" y="333.29" width="115.72" height="14.19" style="fill:#228eaf"/><g style="opacity:0.30000000000000004"><rect x="427.63" y="333.29" width="36.11" height="14.19"/></g><rect x="481.91" y="365.87" width="115.72" height="14.19" style="fill:#228eaf"/><g style="opacity:0.30000000000000004"><rect x="561.52" y="365.87" width="36.11" height="14.19"/></g><path d="M526.31,314.22a3.15,3.15,0,1,0,3.15-3.15A3.15,3.15,0,0,0,526.31,314.22Z" style="fill:#ebebeb"/></g></svg>