<svg id="Layer_1" data-name="Layer 1" xmlns="http://www.w3.org/2000/svg" viewBox="0 0 771.23 176.03"><title>Qonstanta-06</title><path d="M153.62,86.3q-.13,3-.55,6a18.09,18.09,0,0,1-.87,3.86L129.43,79.66a86.46,86.46,0,0,0-4.63-21.29c-.69-1.94-1.43-3.79-2.19-5.54-12.46-23-38.08-34.91-62-29.56C32.26,29.63,17.78,57.85,17.79,80.79c0,38.27,33.11,68.72,68.54,61,.6-.12,1.2-.27,1.79-.41,1.38-.35,2.76-.75,4.14-1.22a19.16,19.16,0,0,1,2.46-.62c.58-.11,1.27-.24,2-.33l18.46,13.34c-1.25,2.27-3.76,3.65-6.33,4.54a.21.21,0,0,1-.11,0,26.78,26.78,0,0,1-2.62.74l-.09,0c-1.2.28-2.31.46-3.16.6A114.74,114.74,0,0,1,91,159.84a113.17,113.17,0,0,1-33.63-3.05c-2-.57-22-6.54-36.59-22.45C-2.29,109.17-9.38,61.51,16.27,29.15,29.54,12.39,53-2,81,.23,116.62,3,135.37,31.13,140.65,39,140.65,39,154.87,60.36,153.62,86.3Z" style="fill:#57b7dd"/><path d="M54.58,67.25A22.08,22.08,0,0,0,59,98.58L86.4,62.07C76.39,54.85,62.15,57.17,54.58,67.25Z" style="fill:#57b7dd"/><path d="M175.27,126.19l-24.09-17.37L130.55,93.94,96.32,69.24,68.93,105.73l38.94,28.1,19.5,14.08,20.5,14.79L205.33,176Zm-24.83,30.62s.21-5.86,2.71-9.17,8.07-3.44,9.46-2.44c-1.39-1-2.93-6.26-.44-9.59s8.13-5.27,8.13-5.27L187.58,159l-4.13,5.49Z" style="fill:#57b7dd"/><path d="M239.89,88.43c-8,0-13.32-5.35-13.32-13.33V57.62c0-8,5.34-13.32,13.32-13.32h30c8,0,13.33,5.34,13.33,13.32V104c0,1.7-.77,2.47-2.46,2.47h-6.2c-1.61,0-2.37-.77-2.37-2.47V83.68c-2.13,3-5.61,4.75-10.61,4.75Zm32.34-28.52c0-3.65-2.3-5.85-5.86-5.85H243.45c-3.64,0-5.85,2.2-5.85,5.85v12.9c0,3.65,2.21,5.86,5.85,5.86h22.92c3.56,0,5.86-2.21,5.86-5.86Z" style="fill:#4d4d4d"/><path d="M292.76,75.1V57.62c0-8,5.35-13.32,13.32-13.32h30c8,0,13.41,5.34,13.41,13.32V75.1c0,8-5.43,13.33-13.41,13.33h-30C298.11,88.43,292.76,83.08,292.76,75.1Zm11-15.19v12.9c0,3.65,2.21,5.86,5.86,5.86h22.83c3.65,0,5.86-2.21,5.86-5.86V59.91c0-3.65-2.21-5.85-5.86-5.85H309.65C306,54.06,303.79,56.26,303.79,59.91Z" style="fill:#4d4d4d"/><path d="M372.28,44.3H401c8,0,13.32,5.34,13.32,13.32V86c0,1.69-.76,2.46-2.46,2.46h-6.2c-1.61,0-2.37-.77-2.37-2.46V59.91c0-3.65-2.29-5.85-5.86-5.85H375.84c-3.65,0-5.85,2.2-5.85,5.85V86a2.14,2.14,0,0,1-2.46,2.46h-6.2A2.17,2.17,0,0,1,358.87,86V57.62C358.87,49.64,364.3,44.3,372.28,44.3Z" style="fill:#4d4d4d"/><path d="M425.74,88.43A2.14,2.14,0,0,1,423.28,86V81.13c0-1.7.77-2.46,2.46-2.46h37.18c2.8,0,3.81-1.28,3.81-3.82v-.43c0-2.46-1-3.82-3.81-3.82H434.48c-7.89,0-12.05-4.15-12.05-12v-2.2c0-7.81,4.16-12.05,12.05-12.05h39.21a2.17,2.17,0,0,1,2.47,2.46v4.83a2.17,2.17,0,0,1-2.47,2.47H437.37c-2.8,0-3.82,1.27-3.82,3.81v.43c0,2.46,1,3.82,3.82,3.82h28.35c7.89,0,12.13,4.16,12.13,12.05v2.21c0,7.8-4.24,12.05-12.13,12.05Z" style="fill:#4d4d4d"/><path d="M526.31,81.13V86c0,1.69-.76,2.46-2.46,2.46H503.56c-8,0-13.32-5.35-13.32-13.33v-21h-4.58c-1.62,0-2.38-.77-2.38-2.47V46.76c0-1.7.76-2.46,2.38-2.46h4.58V36.15c0-1.7.76-2.46,2.46-2.46h6.11c1.7,0,2.46.76,2.46,2.46V44.3h22.15c1.7,0,2.47.76,2.47,2.46v4.83c0,1.7-.77,2.47-2.47,2.47H501.27V72.81c0,3.65,2.21,5.86,5.86,5.86h16.72C525.55,78.67,526.31,79.43,526.31,81.13Z" style="fill:#4d4d4d"/><path d="M577.91,59.91c0-3.65-2.29-5.85-5.86-5.85H537.17c-1.61,0-2.38-.77-2.38-2.47V46.76c0-1.7.77-2.46,2.38-2.46h38.45c8,0,13.32,5.34,13.32,13.32V76c0,8-4.5,12.48-12.48,12.48H545c-7.89,0-12.05-4.25-12.05-12.05V74.17c0-7.89,4.16-12.05,12.05-12.05h32.93Zm-4.25,18.76c2.89,0,4.25-1.53,4.25-4.25V70.6h-30c-2.8,0-3.82,1.36-3.82,3.82v.43c0,2.54,1,3.82,3.82,3.82Z" style="fill:#4d4d4d"/><path d="M611.85,44.3h28.69c8,0,13.32,5.34,13.32,13.32V86c0,1.69-.76,2.46-2.46,2.46h-6.19c-1.62,0-2.38-.77-2.38-2.46V59.91c0-3.65-2.29-5.85-5.86-5.85H615.42c-3.65,0-5.86,2.2-5.86,5.85V86c0,1.69-.76,2.46-2.46,2.46h-6.2A2.17,2.17,0,0,1,598.44,86V57.62C598.44,49.64,603.87,44.3,611.85,44.3Z" style="fill:#4d4d4d"/><path d="M704,81.13V86a2.14,2.14,0,0,1-2.46,2.46H681.27c-8,0-13.32-5.35-13.32-13.33v-21h-4.59c-1.61,0-2.37-.77-2.37-2.47V46.76c0-1.7.76-2.46,2.37-2.46H668V36.15c0-1.7.76-2.46,2.46-2.46h6.11c1.7,0,2.46.76,2.46,2.46V44.3h22.15c1.7,0,2.46.76,2.46,2.46v4.83c0,1.7-.76,2.47-2.46,2.47H679V72.81c0,3.65,2.21,5.86,5.86,5.86h16.72C703.25,78.67,704,79.43,704,81.13Z" style="fill:#4d4d4d"/><path d="M755.61,59.91c0-3.65-2.29-5.85-5.85-5.85H714.88c-1.62,0-2.38-.77-2.38-2.47V46.76c0-1.7.76-2.46,2.38-2.46h38.44c8,0,13.33,5.34,13.33,13.32V76c0,8-4.5,12.48-12.48,12.48H722.68c-7.89,0-12-4.25-12-12.05V74.17c0-7.89,4.16-12.05,12-12.05h32.93Zm-4.24,18.76c2.89,0,4.24-1.53,4.24-4.25V70.6h-30c-2.8,0-3.82,1.36-3.82,3.82v.43c0,2.54,1,3.82,3.82,3.82Z" style="fill:#4d4d4d"/><path d="M243.56,120.71a8.33,8.33,0,0,1,3.24,3.5,12.89,12.89,0,0,1,0,10.73,8.34,8.34,0,0,1-3.26,3.51,9.22,9.22,0,0,1-4.76,1.23,8.36,8.36,0,0,1-5.11-1.55,7.88,7.88,0,0,1-2.88-4.11v5.41h-2.52V112.77h2.52v12.39a7.89,7.89,0,0,1,2.88-4.1,8.3,8.3,0,0,1,5.11-1.55A9.37,9.37,0,0,1,243.56,120.71Zm-9.22,2a6.77,6.77,0,0,0-2.62,2.76,9.61,9.61,0,0,0,0,8.25,6.75,6.75,0,0,0,2.62,2.75,7.32,7.32,0,0,0,3.76,1,7,7,0,0,0,5.33-2.1,9.32,9.32,0,0,0,0-11.49,7,7,0,0,0-5.33-2.11A7.32,7.32,0,0,0,234.34,122.71Z" style="fill:#4d4d4d"/><path d="M266.43,120.71a8.66,8.66,0,0,1,3.47,3.5,12.09,12.09,0,0,1,0,10.75,8.76,8.76,0,0,1-3.47,3.49,10.92,10.92,0,0,1-10.07,0,8.72,8.72,0,0,1-3.51-3.51,11.88,11.88,0,0,1,0-10.73,8.7,8.7,0,0,1,3.51-3.5,11.16,11.16,0,0,1,10.07,0Zm-8.63,1.86a6.52,6.52,0,0,0-2.66,2.65,9.94,9.94,0,0,0,0,8.73,6.53,6.53,0,0,0,2.66,2.63,7.65,7.65,0,0,0,3.6.86,7.42,7.42,0,0,0,3.55-.86A6.57,6.57,0,0,0,267.6,134a9.94,9.94,0,0,0,0-8.73,6.56,6.56,0,0,0-2.65-2.65,7.43,7.43,0,0,0-3.55-.87A7.66,7.66,0,0,0,257.8,122.57Z" style="fill:#4d4d4d"/><path d="M289.62,120.71a8.62,8.62,0,0,1,3.48,3.5,12.09,12.09,0,0,1,0,10.75,8.72,8.72,0,0,1-3.48,3.49,10.15,10.15,0,0,1-5,1.23,10.28,10.28,0,0,1-5-1.23,8.72,8.72,0,0,1-3.51-3.51,11.88,11.88,0,0,1,0-10.73,8.7,8.7,0,0,1,3.51-3.5,10.48,10.48,0,0,1,5-1.2A10.35,10.35,0,0,1,289.62,120.71ZM281,122.57a6.49,6.49,0,0,0-2.67,2.65,9.94,9.94,0,0,0,0,8.73,6.49,6.49,0,0,0,2.67,2.63,7.59,7.59,0,0,0,3.6.86,7.48,7.48,0,0,0,3.55-.86,6.55,6.55,0,0,0,2.64-2.63,9.94,9.94,0,0,0,0-8.73,6.54,6.54,0,0,0-2.64-2.65,7.49,7.49,0,0,0-3.55-.87A7.6,7.6,0,0,0,281,122.57Z" style="fill:#4d4d4d"/><path d="M310,121.2a7.25,7.25,0,0,1,2.38,4.57H310a4.92,4.92,0,0,0-1.57-3.15,5.18,5.18,0,0,0-3.62-1.24,4.45,4.45,0,0,0-3,1,3.16,3.16,0,0,0-1.1,2.53,2.6,2.6,0,0,0,.7,1.91,4.55,4.55,0,0,0,1.75,1.1,25,25,0,0,0,2.81.78,25.3,25.3,0,0,1,3.47,1,5.61,5.61,0,0,1,2.25,1.64,4.54,4.54,0,0,1,.94,3,4.79,4.79,0,0,1-1.75,3.83,6.83,6.83,0,0,1-4.62,1.5,8.78,8.78,0,0,1-5.55-1.68,6.66,6.66,0,0,1-2.56-4.59h2.45a4.61,4.61,0,0,0,1.69,3.17,6.07,6.07,0,0,0,4,1.23,4.12,4.12,0,0,0,2.92-1,3.29,3.29,0,0,0,1-2.52,2.82,2.82,0,0,0-.72-2,4.49,4.49,0,0,0-1.78-1.13c-.71-.25-1.68-.52-2.9-.81a25.52,25.52,0,0,1-3.4-1,5.31,5.31,0,0,1-2.18-1.57,4.32,4.32,0,0,1-.9-2.9,4.83,4.83,0,0,1,1.76-3.89,7.25,7.25,0,0,1,4.79-1.47A7.54,7.54,0,0,1,310,121.2Z" style="fill:#4d4d4d"/><path d="M326.09,137.19v2.24h-2.34a5.92,5.92,0,0,1-4.25-1.35c-.94-.9-1.4-2.42-1.4-4.56V122h-3v-2.2h3v-5h2.55v5h5.41V122h-5.41v11.6a4.14,4.14,0,0,0,.76,2.86,3.64,3.64,0,0,0,2.67.77Z" style="fill:#4d4d4d"/><path d="M340.14,119.76,347,136.15l6.31-16.39h2.81l-11.57,29h-2.88l4-9.51-8.28-19.45Z" style="fill:#4d4d4d"/><path d="M373.22,120.71a8.62,8.62,0,0,1,3.48,3.5,12.09,12.09,0,0,1,0,10.75,8.72,8.72,0,0,1-3.48,3.49,10.17,10.17,0,0,1-5,1.23,10.29,10.29,0,0,1-5.05-1.23,8.78,8.78,0,0,1-3.51-3.51,11.88,11.88,0,0,1,0-10.73,8.76,8.76,0,0,1,3.51-3.5,10.5,10.5,0,0,1,5.05-1.2A10.38,10.38,0,0,1,373.22,120.71Zm-8.62,1.86a6.49,6.49,0,0,0-2.67,2.65,9.94,9.94,0,0,0,0,8.73,6.49,6.49,0,0,0,2.67,2.63,7.59,7.59,0,0,0,3.6.86,7.41,7.41,0,0,0,3.54-.86,6.51,6.51,0,0,0,2.65-2.63,9.94,9.94,0,0,0,0-8.73,6.5,6.5,0,0,0-2.65-2.65,7.42,7.42,0,0,0-3.54-.87A7.6,7.6,0,0,0,364.6,122.57Z" style="fill:#4d4d4d"/><path d="M399.46,119.76v19.67h-2.52v-4.87a6.78,6.78,0,0,1-2.74,3.89,7.93,7.93,0,0,1-4.54,1.34,7.53,7.53,0,0,1-5.6-2.18q-2.15-2.19-2.14-6.4V119.76h2.52V131a6.93,6.93,0,0,0,1.62,4.95,5.82,5.82,0,0,0,4.43,1.71,6.08,6.08,0,0,0,4.7-1.89,7.91,7.91,0,0,0,1.75-5.56V119.76Z" style="fill:#4d4d4d"/><path d="M410.3,120.55A8.84,8.84,0,0,1,415,119.4v2.74h-.83a7.22,7.22,0,0,0-4.72,1.53q-1.87,1.53-1.87,5v10.77H405V119.76h2.56v4.07A6.67,6.67,0,0,1,410.3,120.55Z" style="fill:#4d4d4d"/><path d="M430.22,112.77v26.66h-2.56V112.77Z" style="fill:#4d4d4d"/><path d="M448.73,136.26a5.33,5.33,0,0,0,2.17-3.61h2.66a8,8,0,0,1-3,5.08,9.63,9.63,0,0,1-6.19,2,10,10,0,0,1-5-1.21A8.5,8.5,0,0,1,436,135a12.49,12.49,0,0,1,0-10.77,8.52,8.52,0,0,1,3.41-3.5,10.15,10.15,0,0,1,5-1.2,9.87,9.87,0,0,1,5,1.2,8.17,8.17,0,0,1,3.21,3.23,9.05,9.05,0,0,1,1.1,4.39,10.3,10.3,0,0,1-.15,1.84H437.24a8.36,8.36,0,0,0,1,4.16,6.18,6.18,0,0,0,2.58,2.47,7.48,7.48,0,0,0,3.42.79A7.26,7.26,0,0,0,448.73,136.26Zm-7.85-13.91a6.3,6.3,0,0,0-2.57,2.43,8.33,8.33,0,0,0-1.07,4.09h13.91a7.35,7.35,0,0,0-.79-4.07,6,6,0,0,0-2.53-2.45,7.7,7.7,0,0,0-3.45-.79A7.82,7.82,0,0,0,440.88,122.35Z" style="fill:#4d4d4d"/><path d="M469.3,121.2a7.25,7.25,0,0,1,2.38,4.57h-2.41a4.92,4.92,0,0,0-1.57-3.15,5.18,5.18,0,0,0-3.62-1.24,4.5,4.5,0,0,0-3.05,1,3.18,3.18,0,0,0-1.09,2.53,2.6,2.6,0,0,0,.7,1.91,4.55,4.55,0,0,0,1.75,1.1,25.35,25.35,0,0,0,2.8.78,25.5,25.5,0,0,1,3.48,1,5.61,5.61,0,0,1,2.25,1.64,4.54,4.54,0,0,1,.94,3,4.79,4.79,0,0,1-1.75,3.83,6.86,6.86,0,0,1-4.63,1.5,8.77,8.77,0,0,1-5.54-1.68,6.66,6.66,0,0,1-2.56-4.59h2.45a4.61,4.61,0,0,0,1.69,3.17,6.07,6.07,0,0,0,4,1.23,4.12,4.12,0,0,0,2.92-1,3.29,3.29,0,0,0,1-2.52,2.82,2.82,0,0,0-.72-2,4.49,4.49,0,0,0-1.78-1.13c-.71-.25-1.68-.52-2.9-.81a25.52,25.52,0,0,1-3.4-1,5.31,5.31,0,0,1-2.18-1.57,4.27,4.27,0,0,1-.9-2.9,4.83,4.83,0,0,1,1.76-3.89,7.25,7.25,0,0,1,4.79-1.47A7.56,7.56,0,0,1,469.3,121.2Z" style="fill:#4d4d4d"/><path d="M487.56,121.2a7.25,7.25,0,0,1,2.38,4.57h-2.41a4.92,4.92,0,0,0-1.57-3.15,5.18,5.18,0,0,0-3.62-1.24,4.45,4.45,0,0,0-3,1,3.16,3.16,0,0,0-1.1,2.53,2.6,2.6,0,0,0,.7,1.91,4.55,4.55,0,0,0,1.75,1.1,25,25,0,0,0,2.81.78,25.3,25.3,0,0,1,3.47,1,5.61,5.61,0,0,1,2.25,1.64,4.54,4.54,0,0,1,.94,3,4.79,4.79,0,0,1-1.75,3.83,6.86,6.86,0,0,1-4.63,1.5A8.77,8.77,0,0,1,478.2,138a6.66,6.66,0,0,1-2.56-4.59h2.45a4.61,4.61,0,0,0,1.69,3.17,6.07,6.07,0,0,0,4,1.23,4.12,4.12,0,0,0,2.92-1,3.29,3.29,0,0,0,1-2.52,2.82,2.82,0,0,0-.72-2,4.49,4.49,0,0,0-1.78-1.13c-.71-.25-1.68-.52-2.9-.81a25.52,25.52,0,0,1-3.4-1,5.31,5.31,0,0,1-2.18-1.57,4.32,4.32,0,0,1-.9-2.9,4.83,4.83,0,0,1,1.76-3.89,7.25,7.25,0,0,1,4.79-1.47A7.54,7.54,0,0,1,487.56,121.2Z" style="fill:#4d4d4d"/><path d="M508.65,120.71a8.62,8.62,0,0,1,3.48,3.5,12.09,12.09,0,0,1,0,10.75,8.72,8.72,0,0,1-3.48,3.49,10.17,10.17,0,0,1-5,1.23,10.29,10.29,0,0,1-5.05-1.23,8.72,8.72,0,0,1-3.51-3.51,11.88,11.88,0,0,1,0-10.73,8.7,8.7,0,0,1,3.51-3.5,10.5,10.5,0,0,1,5.05-1.2A10.38,10.38,0,0,1,508.65,120.71ZM500,122.57a6.52,6.52,0,0,0-2.66,2.65,9.94,9.94,0,0,0,0,8.73,6.53,6.53,0,0,0,2.66,2.63,7.66,7.66,0,0,0,3.61.86,7.41,7.41,0,0,0,3.54-.86,6.51,6.51,0,0,0,2.65-2.63,9.94,9.94,0,0,0,0-8.73,6.5,6.5,0,0,0-2.65-2.65,7.42,7.42,0,0,0-3.54-.87A7.67,7.67,0,0,0,500,122.57Z" style="fill:#4d4d4d"/><path d="M533.32,121.58q2.14,2.17,2.15,6.39v11.46H533V128.15a6.87,6.87,0,0,0-1.62-4.91,5.82,5.82,0,0,0-4.43-1.72,6.09,6.09,0,0,0-4.7,1.9,7.89,7.89,0,0,0-1.75,5.56v10.45h-2.55V119.76h2.55v4.83a6.89,6.89,0,0,1,2.74-3.86,7.92,7.92,0,0,1,4.54-1.33A7.47,7.47,0,0,1,533.32,121.58Z" style="fill:#4d4d4d"/><path d="M568.08,132.78a3.21,3.21,0,0,1-1.39-.91l.37-.53a3,3,0,0,0,1.28.85,4.83,4.83,0,0,0,1.76.34,3.86,3.86,0,0,0,2.19-.56,1.77,1.77,0,0,0,.82-1.55,1.2,1.2,0,0,0-.3-.84,2.28,2.28,0,0,0-.76-.52,12,12,0,0,0-1.23-.4,14.81,14.81,0,0,1-1.44-.51,2.38,2.38,0,0,1-.92-.68,1.72,1.72,0,0,1-.37-1.16,2.49,2.49,0,0,1,.47-1.51,3,3,0,0,1,1.31-1,5.11,5.11,0,0,1,1.9-.34,5.85,5.85,0,0,1,1.58.22,4.28,4.28,0,0,1,1.29.61l-.33.57a3.88,3.88,0,0,0-1.17-.58,4.6,4.6,0,0,0-1.4-.2,3.66,3.66,0,0,0-2.14.57,1.79,1.79,0,0,0-.82,1.56,1.24,1.24,0,0,0,.32.87,2.21,2.21,0,0,0,.76.53c.31.12.72.26,1.26.42a13.94,13.94,0,0,1,1.42.49,2.29,2.29,0,0,1,.9.66,1.67,1.67,0,0,1,.37,1.13,2.36,2.36,0,0,1-1,2.06,4.62,4.62,0,0,1-2.71.74A5.42,5.42,0,0,1,568.08,132.78Z" style="fill:#4d4d4d"/><path d="M583.08,126l-1.41,7.09H581l.28-1.35a3.32,3.32,0,0,1-2.91,1.4,2.6,2.6,0,0,1-1.84-.6,2.17,2.17,0,0,1-.64-1.67,3.54,3.54,0,0,1,.08-.77l.81-4.1h.68l-.81,4.1a2.84,2.84,0,0,0-.07.68,1.69,1.69,0,0,0,.49,1.3,2.13,2.13,0,0,0,1.48.45,3,3,0,0,0,2-.68,3.4,3.4,0,0,0,1.06-2l.77-3.86Z" style="fill:#4d4d4d"/><path d="M591.53,126.72a2.82,2.82,0,0,1,.84,2.15,4.5,4.5,0,0,1-.52,2.18,3.84,3.84,0,0,1-1.44,1.52,3.9,3.9,0,0,1-2.06.55,3.16,3.16,0,0,1-1.81-.47,2.37,2.37,0,0,1-1-1.35l-.88,4.4H584l1.94-9.72h.67l-.27,1.37a3.58,3.58,0,0,1,1.27-1,3.82,3.82,0,0,1,1.7-.37A3.1,3.1,0,0,1,591.53,126.72ZM590.07,132a3.24,3.24,0,0,0,1.18-1.28,3.86,3.86,0,0,0,.43-1.85,2.3,2.3,0,0,0-.66-1.75,2.62,2.62,0,0,0-1.85-.62,3.17,3.17,0,0,0-1.71.46,3.27,3.27,0,0,0-1.19,1.28,3.92,3.92,0,0,0-.43,1.86,2.3,2.3,0,0,0,.66,1.75,2.66,2.66,0,0,0,1.86.62A3.1,3.1,0,0,0,590.07,132Z" style="fill:#4d4d4d"/><path d="M600.69,126.72a2.79,2.79,0,0,1,.85,2.15,4.51,4.51,0,0,1-.53,2.18,3.7,3.7,0,0,1-1.44,1.52,3.86,3.86,0,0,1-2.05.55,3.2,3.2,0,0,1-1.82-.47,2.4,2.4,0,0,1-1-1.35l-.88,4.4h-.68L595.1,126h.67l-.28,1.37a3.62,3.62,0,0,1,1.28-1,3.79,3.79,0,0,1,1.7-.37A3.09,3.09,0,0,1,600.69,126.72ZM599.24,132a3.31,3.31,0,0,0,1.18-1.28,4,4,0,0,0,.42-1.85,2.29,2.29,0,0,0-.65-1.75,2.63,2.63,0,0,0-1.86-.62,3.16,3.16,0,0,0-1.7.46,3.27,3.27,0,0,0-1.19,1.28,3.92,3.92,0,0,0-.43,1.86,2.3,2.3,0,0,0,.66,1.75,2.63,2.63,0,0,0,1.86.62A3.14,3.14,0,0,0,599.24,132Z" style="fill:#4d4d4d"/><path d="M603.59,132.32a2.82,2.82,0,0,1-.84-2.14,4.5,4.5,0,0,1,.52-2.18,4,4,0,0,1,1.44-1.52,4,4,0,0,1,2.1-.55,3.18,3.18,0,0,1,2.28.79,2.79,2.79,0,0,1,.85,2.15,4.5,4.5,0,0,1-.52,2.18,3.79,3.79,0,0,1-1.45,1.52,4,4,0,0,1-2.09.55A3.18,3.18,0,0,1,603.59,132.32Zm4-.27a3.34,3.34,0,0,0,1.19-1.28,3.92,3.92,0,0,0,.43-1.86,2.3,2.3,0,0,0-.66-1.75,2.58,2.58,0,0,0-1.85-.62,3.09,3.09,0,0,0-1.7.47,3.23,3.23,0,0,0-1.19,1.29,3.85,3.85,0,0,0-.44,1.84,2.3,2.3,0,0,0,.66,1.75,2.63,2.63,0,0,0,1.86.62A3.16,3.16,0,0,0,607.64,132.05Z" style="fill:#4d4d4d"/><path d="M614.27,126.31a3.93,3.93,0,0,1,1.8-.38l-.12.66h-.22a2.77,2.77,0,0,0-2,.72,3.84,3.84,0,0,0-1.06,2.13l-.74,3.64h-.68l1.42-7.09h.66l-.3,1.49A3.15,3.15,0,0,1,614.27,126.31Z" style="fill:#4d4d4d"/><path d="M618.06,131a2.92,2.92,0,0,0,0,.5c0,.68.36,1,1.09,1a1.84,1.84,0,0,0,1.15-.39l.2.5a2.3,2.3,0,0,1-1.52.47,1.68,1.68,0,0,1-1.19-.4,1.43,1.43,0,0,1-.42-1.1,2.45,2.45,0,0,1,0-.55l.91-4.51H617l.11-.58h1.32l.31-1.55h.68l-.31,1.55h2.25l-.11.58H619Z" style="fill:#4d4d4d"/><path d="M622.56,129.67q0,.3,0,.45a2.27,2.27,0,0,0,.67,1.77,2.72,2.72,0,0,0,1.95.62,3.64,3.64,0,0,0,1.38-.25,2.89,2.89,0,0,0,1.05-.7l.32.48a3.28,3.28,0,0,1-1.22.8,4.34,4.34,0,0,1-1.58.28,3.39,3.39,0,0,1-2.37-.78,2.81,2.81,0,0,1-.86-2.19,4.53,4.53,0,0,1,.5-2.16,3.8,3.8,0,0,1,1.38-1.51,3.66,3.66,0,0,1,2-.55,3.07,3.07,0,0,1,2.2.78,2.9,2.9,0,0,1,.81,2.18,5,5,0,0,1-.08.78Zm1.17-2.44a3.42,3.42,0,0,0-1.09,1.91h5.46a3.33,3.33,0,0,0,0-.35,2.18,2.18,0,0,0-.65-1.68,2.45,2.45,0,0,0-1.74-.6A3,3,0,0,0,623.73,127.23Z" style="fill:#4d4d4d"/><path d="M638.42,123l-2,10.08h-.65l.27-1.39a3.46,3.46,0,0,1-1.28,1.06,3.73,3.73,0,0,1-1.71.38,3.09,3.09,0,0,1-2.22-.79,2.85,2.85,0,0,1-.83-2.15,4.58,4.58,0,0,1,.51-2.18,3.77,3.77,0,0,1,1.44-1.52,3.86,3.86,0,0,1,2-.55,3.2,3.2,0,0,1,1.82.47,2.36,2.36,0,0,1,1,1.36l1-4.77Zm-3.54,9.06a3.34,3.34,0,0,0,1.19-1.28,3.93,3.93,0,0,0,.44-1.86,2.3,2.3,0,0,0-.66-1.75,2.63,2.63,0,0,0-1.86-.62,3.09,3.09,0,0,0-1.7.47,3.3,3.3,0,0,0-1.19,1.29,3.84,3.84,0,0,0-.43,1.84,2.33,2.33,0,0,0,.65,1.75,2.63,2.63,0,0,0,1.86.62A3.16,3.16,0,0,0,634.88,132.05Z" style="fill:#4d4d4d"/><path d="M649.76,126.72a2.82,2.82,0,0,1,.84,2.15,4.5,4.5,0,0,1-.52,2.18,3.84,3.84,0,0,1-1.44,1.52,3.9,3.9,0,0,1-2.06.55,3.23,3.23,0,0,1-1.83-.48,2.38,2.38,0,0,1-1-1.38l-.35,1.81h-.67l2-10.08h.68l-.86,4.32a3.59,3.59,0,0,1,1.27-1,3.9,3.9,0,0,1,1.68-.36A3.1,3.1,0,0,1,649.76,126.72ZM648.3,132a3.31,3.31,0,0,0,1.18-1.28,3.86,3.86,0,0,0,.43-1.85,2.3,2.3,0,0,0-.66-1.75,2.62,2.62,0,0,0-1.85-.62,3.17,3.17,0,0,0-1.71.46,3.27,3.27,0,0,0-1.19,1.28,3.92,3.92,0,0,0-.43,1.86,2.3,2.3,0,0,0,.66,1.75,2.66,2.66,0,0,0,1.86.62A3.1,3.1,0,0,0,648.3,132Z" style="fill:#4d4d4d"/><path d="M658.83,126l-5.3,8.13a4.27,4.27,0,0,1-1.13,1.29,2.23,2.23,0,0,1-1.27.36,2.78,2.78,0,0,1-.92-.16,1.56,1.56,0,0,1-.68-.47l.39-.5a1.64,1.64,0,0,0,1.28.53,1.58,1.58,0,0,0,.89-.27,3.57,3.57,0,0,0,.85-.95l.59-.9L651.74,126h.69l1.59,6.34,4.1-6.34Z" style="fill:#4d4d4d"/><path d="M684,118.26v21h-4.31v-21h-7.88v21h-4.31V115.72h22.3a10.52,10.52,0,0,1,3.13.38,4.07,4.07,0,0,1,2,1.25,4.79,4.79,0,0,1,1,2.24,17.52,17.52,0,0,1,.27,3.32v16.3H691.9V122.74a14.11,14.11,0,0,0-.15-2.28,3.09,3.09,0,0,0-.53-1.38,1.86,1.86,0,0,0-1.08-.65,7.72,7.72,0,0,0-1.84-.17Z" style="fill:#4d4d4d"/><path d="M708.17,125.11v2.46h-1.82a7.66,7.66,0,0,0-1.84.17,2.28,2.28,0,0,0-1.08.53,1.85,1.85,0,0,0-.53.95,6.13,6.13,0,0,0-.15,1.48v2.71a6.91,6.91,0,0,0,.15,1.59,2,2,0,0,0,.53,1,2,2,0,0,0,1.08.53,9.05,9.05,0,0,0,1.84.15h4.78V122.74a14.11,14.11,0,0,0-.15-2.28,3,3,0,0,0-.53-1.38,1.86,1.86,0,0,0-1.07-.65,7.75,7.75,0,0,0-1.85-.17h-6.09v-2.54h7.62a10.57,10.57,0,0,1,3.13.38,4.11,4.11,0,0,1,2,1.25,4.78,4.78,0,0,1,1,2.24,16.65,16.65,0,0,1,.28,3.32v16.3H704.82a11.36,11.36,0,0,1-3.13-.36,4.76,4.76,0,0,1-2-1.06,3.59,3.59,0,0,1-1-1.74,9,9,0,0,1-.28-2.39v-3a9.07,9.07,0,0,1,.28-2.39,3.63,3.63,0,0,1,1-1.74,4.88,4.88,0,0,1,2-1.06,11.36,11.36,0,0,1,3.13-.36Z" style="fill:#4d4d4d"/><path d="M729.69,115.72a10.57,10.57,0,0,1,3.13.38,4.07,4.07,0,0,1,2,1.25,4.89,4.89,0,0,1,1,2.24,17.52,17.52,0,0,1,.27,3.32V132a17.56,17.56,0,0,1-.27,3.35,5,5,0,0,1-1,2.22,4.14,4.14,0,0,1-2,1.25,10.91,10.91,0,0,1-3.13.38H724a10.86,10.86,0,0,1-3.13-.38,4.14,4.14,0,0,1-2-1.25,4.76,4.76,0,0,1-1-2.22,17.56,17.56,0,0,1-.27-3.35v-9.1a17.52,17.52,0,0,1,.27-3.32,4.7,4.7,0,0,1,1-2.24,4.07,4.07,0,0,1,2-1.25,10.52,10.52,0,0,1,3.13-.38Zm-7.75,16.46a14.24,14.24,0,0,0,.15,2.29,3,3,0,0,0,.53,1.37,1.85,1.85,0,0,0,1.08.66,8.28,8.28,0,0,0,1.84.17h2.63a8.28,8.28,0,0,0,1.84-.17,1.88,1.88,0,0,0,1.08-.66,3,3,0,0,0,.53-1.37,15.7,15.7,0,0,0,.14-2.29v-9.44a15.55,15.55,0,0,0-.14-2.28,3.09,3.09,0,0,0-.53-1.38,1.92,1.92,0,0,0-1.08-.65,7.72,7.72,0,0,0-1.84-.17h-2.63a7.72,7.72,0,0,0-1.84.17,1.89,1.89,0,0,0-1.08.65,3.09,3.09,0,0,0-.53,1.38,14.11,14.11,0,0,0-.15,2.28Z" style="fill:#4d4d4d"/><path d="M748.46,118.26h-5.88v15a4.6,4.6,0,0,0,.57,2.73,2.77,2.77,0,0,0,2.22.7h1.91v2.54h-3.65a6.89,6.89,0,0,1-2.56-.42,4.09,4.09,0,0,1-1.65-1.19,4.9,4.9,0,0,1-.89-1.8,8.92,8.92,0,0,1-.27-2.26v-24h4.32v6.18h5.88Z" style="fill:#4d4d4d"/><path d="M766.43,119.59a4.82,4.82,0,0,0-1-2.25,4.14,4.14,0,0,0-2-1.24,10.6,10.6,0,0,0-3.14-.39H749.77v2.55h9a8.36,8.36,0,0,1,1.84.16,1.92,1.92,0,0,1,1.08.66,3.09,3.09,0,0,1,.53,1.38,14.11,14.11,0,0,1,.15,2.28v13.91H749.61l-2.33,2.56h15.11l4.31,2.58V122.91A17.52,17.52,0,0,0,766.43,119.59Z" style="fill:#3fb0e4"/><polygon points="757.39 127.46 750.16 123.29 750.16 131.63 757.39 127.46" style="fill:#3fb0e4"/><path d="M717.94,145a1.56,1.56,0,1,1,3.11,0,1.56,1.56,0,1,1-3.11,0Zm2.49,0c0-.91-.34-1.41-.94-1.41s-.93.5-.93,1.41.33,1.38.93,1.38S720.43,145.92,720.43,145Z" style="fill:#f27121"/><path d="M722.47,145.4c0,.61.18.82.55.82a1.51,1.51,0,0,0,1.05-.51h.14v.35h-.35l.24-.11a1.6,1.6,0,0,1-1.29.74c-.55,0-.89-.32-.88-1.22l0-1.8.14.13-.63-.13v-.24l1-.09.07.07,0,1Zm1.62,1.26-.09-.8,0-2.19.14.13-.63-.13v-.24l1-.09.07.07,0,1v2l-.16-.17.63.14v.24Z" style="fill:#f27121"/><path d="M726.05,145.18v-.32c0-.38,0-.59,0-.86l-.54-.06v-.24l.92-.41.11.07.08.85v1c0,.42,0,1.12,0,1.43H726C726.05,146.3,726.05,145.6,726.05,145.18Zm-.51,1.19.75-.14h.14l.75.14v.24h-1.64Zm.78-2.11h.39l-.17.05c.22-.64.64-1,1-1a.6.6,0,0,1,.48.23c0,.32-.12.5-.39.5a.62.62,0,0,1-.41-.16l-.19-.16.34-.07a1.63,1.63,0,0,0-.83,1.08h-.26Z" style="fill:#f27121"/><path d="M730.56,144.94c0,.86.45,1.33,1.09,1.33a1.09,1.09,0,0,0,1-.54l.17.09a1.22,1.22,0,0,1-1.26.87A1.5,1.5,0,0,1,730,145a1.59,1.59,0,0,1,1.56-1.71,1.17,1.17,0,0,1,1.2.88.29.29,0,0,1-.31.25c-.22,0-.31-.13-.36-.31l-.17-.59.31.25a1.43,1.43,0,0,0-.65-.17C731,143.6,730.56,144.07,730.56,144.94Z" style="fill:#f27121"/><path d="M733.32,145a1.56,1.56,0,1,1,3.1,0,1.56,1.56,0,1,1-3.1,0Zm2.49,0c0-.91-.35-1.41-.94-1.41s-.94.5-.94,1.41.33,1.38.94,1.38S735.81,145.92,735.81,145Z" style="fill:#f27121"/><path d="M737.52,146.61c0-.31,0-1,0-1.43v-.32c0-.38,0-.59,0-.86l-.55-.06v-.24l.93-.41.1.07.08.79v1c0,.42,0,1.12,0,1.43Zm1.06-.24v.24H737v-.24l.75-.14h.14Zm1.57-1.82v.63c0,.43,0,1.12,0,1.43h-.58c0-.31,0-1,0-1.43v-.58c0-.63-.17-.83-.58-.83a1.44,1.44,0,0,0-1,.47h-.15v-.31h.35l-.29.12a1.86,1.86,0,0,1,1.35-.76C739.87,143.29,740.15,143.65,740.15,144.55Zm-.18,1.68.68.14v.24h-1.57v-.24l.75-.14Z" style="fill:#f27121"/><path d="M741.63,146.61c0-.31,0-1,0-1.43v-.32c0-.38,0-.59,0-.86l-.54-.06v-.24l.92-.41.11.07.08.79v1c0,.42,0,1.12,0,1.43Zm1.06-.24v.24h-1.56v-.24l.75-.14H742Zm1.58-1.82v.63c0,.43,0,1.12,0,1.43h-.59c0-.31,0-1,0-1.43v-.58c0-.63-.16-.83-.57-.83a1.47,1.47,0,0,0-1,.47H742v-.31h.35l-.3.12a1.88,1.88,0,0,1,1.35-.76C744,143.29,744.27,143.65,744.27,144.55Zm-.19,1.68.68.14v.24H743.2v-.24l.75-.14Z" style="fill:#f27121"/><path d="M748.09,144.59a1.25,1.25,0,0,1-.05.38h-2.51v-.28h1.62c.33,0,.4-.16.4-.35a.75.75,0,0,0-.75-.74c-.44,0-.94.37-.94,1.34s.43,1.33,1.11,1.33a1.19,1.19,0,0,0,1-.49l.15.12a1.37,1.37,0,0,1-1.3.79,1.48,1.48,0,0,1-1.5-1.66,1.61,1.61,0,0,1,1.55-1.74A1.22,1.22,0,0,1,748.09,144.59Z" style="fill:#f27121"/><path d="M749.29,144.94c0,.86.45,1.33,1.09,1.33a1.12,1.12,0,0,0,1-.54l.16.09a1.22,1.22,0,0,1-1.26.87,1.5,1.5,0,0,1-1.52-1.69,1.59,1.59,0,0,1,1.56-1.71,1.17,1.17,0,0,1,1.2.88.29.29,0,0,1-.31.25c-.22,0-.31-.13-.36-.31l-.17-.59.31.25a1.43,1.43,0,0,0-.65-.17C749.71,143.6,749.29,144.07,749.29,144.94Z" style="fill:#f27121"/><path d="M753.29,146.35a.79.79,0,0,0,.47-.19l.15.19a1,1,0,0,1-.79.34.68.68,0,0,1-.76-.76c0-.17,0-.31,0-.58v-1.62h-.57v-.29l.84-.11-.27.23.2-1.11h.4l-.06,1.2v2.2C752.91,146.2,753.06,146.35,753.29,146.35Zm.56-3v.35h-1.21v-.35Z" style="fill:#f27121"/><path d="M754.69,146.61c0-.31,0-1,0-1.43v-.32c0-.38,0-.59,0-.86l-.56-.06v-.24l1-.41.1.07,0,.92v.9c0,.42,0,1.12,0,1.43Zm1-.24v.24h-1.57v-.24l.75-.14h.14Zm-1.22-4.28a.45.45,0,1,1,.45.43A.42.42,0,0,1,754.52,142.09Z" style="fill:#f27121"/><path d="M756.74,146.61c0-.31,0-1,0-1.43v-.32c0-.38,0-.59,0-.86l-.55-.06v-.24l.93-.41.1.07.08.79v1c0,.42,0,1.12,0,1.43Zm1.06-.24v.24h-1.57v-.24l.75-.14h.14Zm1.57-1.82v.63c0,.43,0,1.12,0,1.43h-.58c0-.31,0-1,0-1.43v-.58c0-.63-.17-.83-.58-.83a1.45,1.45,0,0,0-1,.47h-.15v-.31h.35l-.29.12a1.86,1.86,0,0,1,1.35-.76C759.09,143.29,759.37,143.65,759.37,144.55Zm-.18,1.68.68.14v.24H758.3v-.24l.75-.14Z" style="fill:#f27121"/><path d="M762.9,147.23c0-.3-.19-.54-.69-.54h-.8a1.88,1.88,0,0,1-.34,0v0c-.35-.07-.52-.25-.52-.53s.15-.5.62-.9l.15.1a.8.8,0,0,0-.3.57c0,.18.08.31.4.31h.9c.72,0,1.07.32,1.07.87s-.56,1.17-1.66,1.17-1.41-.34-1.41-.83c0-.33.21-.59.9-.88l0,0a1,1,0,0,0-.39.74c0,.45.35.62.88.62C762.5,147.93,762.9,147.62,762.9,147.23Zm-1.2-3.94a1.08,1.08,0,0,1,1.22,1.12,1.1,1.1,0,0,1-1.22,1.11,1.08,1.08,0,0,1-1.22-1.11A1.1,1.1,0,0,1,761.7,143.29Zm-.69,1.12c0,.5.25.84.67.84s.7-.36.7-.86-.24-.83-.67-.83S761,143.92,761,144.41Zm2.31-1.12.11.07v.42h-1v-.18Z" style="fill:#f27121"/></svg>